<svg xmlns="http://www.w3.org/2000/svg" width="20" height="20" viewBox="0 0 20 20">
  <g id="Vector_Smart_Object" data-name="Vector Smart Object" transform="translate(-292.68 -498.495)">
    <path id="Path_229" data-name="Path 229" d="M312.68,508.5a10,10,0,1,1-10-10A10,10,0,0,1,312.68,508.5Z" fill="#a3b2bd"/>
    <path id="Path_230" data-name="Path 230" d="M301.418,511.909l-.589.585a1.316,1.316,0,0,1-1.851,0,1.282,1.282,0,0,1,0-1.82l2.168-2.151c.448-.445,1.295-1.1,1.91-.491a.721.721,0,1,0,1.016-1.024c-1.046-1.037-2.594-.847-3.942.491l-2.168,2.151a2.723,2.723,0,0,0,0,3.868,2.766,2.766,0,0,0,3.884,0l.589-.585a.722.722,0,1,0-1.017-1.024Zm6.569-8.354a2.575,2.575,0,0,0-3.737-.144l-.734.729a.721.721,0,0,0,1.015,1.024l.735-.729a1.168,1.168,0,0,1,1.706.143,1.28,1.28,0,0,1,0,1.821l-2.312,2.3c-1.059,1.047-1.554.556-1.765.346a.721.721,0,1,0-1.016,1.023,2.271,2.271,0,0,0,1.62.72,3.175,3.175,0,0,0,2.177-1.067l2.313-2.294a2.72,2.72,0,0,0,0-3.867Zm0,0" fill="#fff"/>
  </g>
</svg>
