<svg xmlns="http://www.w3.org/2000/svg" width="106" height="40" viewBox="0 0 106 40">
  <g id="Vector_Smart_Object" data-name="Vector Smart Object" transform="translate(-257.685 -402.375)">
    <g id="Group_82" data-name="Group 82">
      <path id="Path_231" data-name="Path 231" d="M310.124,442.375a.795.795,0,1,1,0-1.589h1.545a.821.821,0,0,1,.829.793.771.771,0,0,1-.77.8v-.8l-.024.8Zm-3.2,0h-1.6a.795.795,0,1,1,0-1.589h1.6a.795.795,0,1,1,0,1.589Zm-4.808,0h-1.6a.795.795,0,1,1,0-1.589h1.6a.795.795,0,1,1,0,1.589Zm-4.808,0h-1.6a.795.795,0,1,1,0-1.589h1.6a.795.795,0,1,1,0,1.589Zm-4.807,0h-1.6a.795.795,0,1,1,0-1.589h1.6a.795.795,0,1,1,0,1.589Zm-4.8,0h-1.6a.795.795,0,1,1,0-1.589h1.6a.795.795,0,1,1,0,1.589Zm-4.591,0h-1.6a.795.795,0,1,1,0-1.589h1.6a.795.795,0,1,1,0,1.589Zm-4.757,0h-1.6a.795.795,0,1,1,0-1.589h1.6a.795.795,0,1,1,0,1.589Zm-4.728,0h-1.6a.795.795,0,1,1,0-1.589h1.6a.795.795,0,1,1,0,1.589Zm-4.71,0h-1.6a.795.795,0,1,1,0-1.589h1.6a.795.795,0,1,1,0,1.589Zm45.6-1.367a.817.817,0,0,1-.5-.167.793.793,0,0,1-.133-1.119,2.829,2.829,0,0,0,.533-1.107.8.8,0,0,1,1.56.349,4.341,4.341,0,0,1-.833,1.74.8.8,0,0,1-.63.3Zm0-4.424a.8.8,0,0,1-.63-.3,2.875,2.875,0,0,0-.962-.777.791.791,0,0,1-.36-1.063.8.8,0,0,1,1.076-.359,4.425,4.425,0,0,1,1.506,1.216.8.8,0,0,1-.63,1.286Zm-4.382-1.367h-1.6a.8.8,0,1,1,0-1.593h1.6a.8.8,0,1,1,0,1.593Zm-4.808,0h-1.6a.8.8,0,1,1,0-1.593h1.6a.8.8,0,1,1,0,1.593Zm-4.76-.321a.8.8,0,0,1-.333-.076,4.467,4.467,0,0,1-1.541-1.164.79.79,0,0,1,.1-1.122.806.806,0,0,1,1.127.1,2.826,2.826,0,0,0,.985.746.791.791,0,0,1,.4,1.053.811.811,0,0,1-.731.467Zm-2.043-3.935a.835.835,0,0,1-.148-.013.8.8,0,0,1-.638-.933,4.331,4.331,0,0,1,.779-1.767.81.81,0,0,1,1.123-.171.792.792,0,0,1,.168,1.111,2.81,2.81,0,0,0-.5,1.127.8.8,0,0,1-.787.646Zm3.369-2.9a.8.8,0,0,1-.032-1.593c.071,0,.137,0,.208,0h1.427a.8.8,0,1,1,0,1.594l-1.568,0Zm14.6,0h-.172a.8.8,0,1,1,0-1.594h.172a2.767,2.767,0,0,0,1.084-.214.805.805,0,0,1,1.049.424.789.789,0,0,1-.431,1.041,4.4,4.4,0,0,1-1.7.343Zm-3.376,0h-1.6a.8.8,0,1,1,0-1.594h1.6a.8.8,0,1,1,0,1.594Zm-4.808,0h-1.6a.8.8,0,1,1,0-1.594h1.6a.8.8,0,1,1,0,1.594Zm11.643-2.571a.727.727,0,0,1-.223-.033.792.792,0,0,1-.544-.986,2.791,2.791,0,0,0,.114-.785,2.64,2.64,0,0,0-.035-.438.8.8,0,0,1,1.584-.254,4.2,4.2,0,0,1,.05.7,4.374,4.374,0,0,1-.175,1.227.8.8,0,0,1-.771.573Zm-1.654-4.111a.785.785,0,0,1-.4-.105,2.737,2.737,0,0,0-1.177-.365.8.8,0,1,1,.125-1.585,4.4,4.4,0,0,1,1.858.573.789.789,0,0,1,.289,1.086.8.8,0,0,1-.692.4Zm-4.722-.478h-1.6a.8.8,0,1,1,0-1.592h1.6a.8.8,0,1,1,0,1.592Zm-4.808,0h-1.6a.8.8,0,1,1,0-1.592h1.6a.8.8,0,1,1,0,1.592Zm-4.808,0h-1.6a.8.8,0,1,1,0-1.592h1.6a.8.8,0,1,1,0,1.592Zm-4.8,0h-.289a4.584,4.584,0,0,1-1.572-.287.8.8,0,1,1,.571-1.488,2.852,2.852,0,0,0,1.006.183h.285a.8.8,0,1,1,0,1.592Zm-3.713-2.462a.8.8,0,0,1-.762-.548,4.353,4.353,0,0,1-.219-1.367,4.307,4.307,0,0,1,.035-.552.8.8,0,0,1,1.592.2,2.629,2.629,0,0,0-.023.357,2.817,2.817,0,0,0,.136.866.8.8,0,0,1-.509,1.006.825.825,0,0,1-.25.039Zm1.526-4.16a.8.8,0,0,1-.427-1.472,4.334,4.334,0,0,1,1.839-.629.8.8,0,1,1,.176,1.581,2.752,2.752,0,0,0-1.166.4.805.805,0,0,1-.423.12Zm11.115-.54h-1.6a.794.794,0,1,1,0-1.588h1.6a.794.794,0,1,1,0,1.588Zm5.258,0h-1.6a.794.794,0,1,1,0-1.588h1.6a.794.794,0,1,1,0,1.588Zm4.757,0h-1.6a.794.794,0,1,1,0-1.588h1.6a.794.794,0,1,1,0,1.588Zm4.757,0h-1.6a.794.794,0,1,1,0-1.588h1.6a.794.794,0,1,1,0,1.588Zm5.258,0h-1.6a.794.794,0,1,1,0-1.588h1.6a.794.794,0,1,1,0,1.588Zm5.133,0h-1.6a.794.794,0,1,1,0-1.588h1.6a.794.794,0,1,1,0,1.588Zm5.679,0h-1.6a.794.794,0,1,1,0-1.588h1.6a.794.794,0,1,1,0,1.588Zm5.258,0h-1.6a.794.794,0,1,1,0-1.588h1.6a.794.794,0,1,1,0,1.588Zm4.837,0h-1.6a.794.794,0,1,1,0-1.588H349a.794.794,0,1,1,0,1.588Zm5.008,0h-1.6a.794.794,0,1,1,0-1.588h1.6a.794.794,0,1,1,0,1.588Zm5.258,0h-1.6a.794.794,0,1,1,0-1.588h1.6a.794.794,0,1,1,0,1.588Zm-56.011,0h-1.6a.794.794,0,1,1,0-1.588h1.6a.794.794,0,1,1,0,1.588Zm0,0" fill="#706c63"/>
      <g id="Group_81" data-name="Group 81">
        <path id="Path_232" data-name="Path 232" d="M362.624,403.562a3.348,3.348,0,0,0-5.114,0,4.391,4.391,0,0,0,0,5.723l2.555,2.864,2.559-2.864a4.391,4.391,0,0,0,0-5.723Zm-2.447,4.587a2,2,0,1,1,2.014-2,2,2,0,0,1-2.014,2Zm0,0" fill="#f0c75e"/>
        <path id="Path_233" data-name="Path 233" d="M272.731,420.217a8.152,8.152,0,0,0-12.464,0,10.748,10.748,0,0,0,0,13.976l6.232,6.99,6.231-6.99a10.745,10.745,0,0,0,0-13.976Zm-6.231,9.831a3.978,3.978,0,1,1,4.006-3.977,3.992,3.992,0,0,1-4.006,3.977Zm0,0" fill="#062a47"/>
        <path id="Path_234" data-name="Path 234" d="M272.869,420.216a8.983,8.983,0,0,0-6.37-2.895l.138,23.86,6.231-6.99a10.745,10.745,0,0,0,0-13.976Zm-6.231,9.831" fill="#115f9f"/>
        <path id="Path_235" data-name="Path 235" d="M323.927,415.165a4.238,4.238,0,0,0-6.481,0,5.587,5.587,0,0,0,0,7.269l3.241,3.637,3.24-3.637a5.587,5.587,0,0,0,0-7.269Zm-3.24,5.113a2.069,2.069,0,1,1,2.084-2.068,2.075,2.075,0,0,1-2.084,2.068Zm0,0" fill="#062a47"/>
        <path id="Path_236" data-name="Path 236" d="M324,415.164a4.678,4.678,0,0,0-3.314-1.505l.071,12.411L324,422.434a5.593,5.593,0,0,0,0-7.27Zm-3.243,5.113" fill="#115f9f"/>
      </g>
    </g>
    <path id="Path_237" data-name="Path 237" d="M266.5,430.048a3.978,3.978,0,1,1,4.006-3.977,3.992,3.992,0,0,1-4.006,3.977Z" fill="#fff"/>
    <path id="Path_238" data-name="Path 238" d="M320.687,420.4a2.209,2.209,0,1,1,2.225-2.209,2.218,2.218,0,0,1-2.225,2.209Z" fill="#fff"/>
  </g>
</svg>
