<svg xmlns="http://www.w3.org/2000/svg" xmlns:xlink="http://www.w3.org/1999/xlink" width="11.996" height="16" viewBox="0 0 11.996 16">
  <defs>
    <clipPath id="clip-path">
      <rect id="Rectangle_36" data-name="Rectangle 36" width="11.996" height="16" transform="translate(12.311 19.013)" fill="none"/>
    </clipPath>
  </defs>
  <g id="Vector_Smart_Object" data-name="Vector Smart Object" transform="translate(-1032 -4513)">
    <g id="Vector_Smart_Object-2" data-name="Vector Smart Object" transform="translate(1019.689 4493.987)">
      <g id="Group_67" data-name="Group 67">
        <g id="Group_66" data-name="Group 66">
          <g id="Group_65" data-name="Group 65" clip-path="url(#clip-path)">
            <path id="Path_197" data-name="Path 197" d="M22.755,20.695a5.73,5.73,0,0,0-4.1-1.628,6.313,6.313,0,0,0-4.748,1.9,5.741,5.741,0,0,0-1.6,3.9c0,1.768.711,3.125,1.9,3.63a.608.608,0,0,0,.239.051.538.538,0,0,0,.519-.445c.04-.157.133-.546.174-.714a.688.688,0,0,0-.172-.725,2.369,2.369,0,0,1-.5-1.577,3.9,3.9,0,0,1,3.957-4,3,3,0,0,1,3.306,3.147,6.756,6.756,0,0,1-.714,3.194,2.119,2.119,0,0,1-1.747,1.272,1.107,1.107,0,0,1-1.107-1.4c.091-.4.215-.818.335-1.222a7.819,7.819,0,0,0,.426-1.989,1.422,1.422,0,0,0-1.4-1.589c-1.062,0-1.894,1.123-1.894,2.555a3.935,3.935,0,0,0,.261,1.43c-.134.59-.929,4.1-1.08,4.758-.087.386-.613,3.434.257,3.678.977.273,1.85-2.7,1.939-3.031.072-.273.324-1.3.479-1.939a2.891,2.891,0,0,0,1.97.792,4.339,4.339,0,0,0,3.528-1.836,7.58,7.58,0,0,0,1.326-4.507,5.3,5.3,0,0,0-1.556-3.717Zm0,0"/>
          </g>
        </g>
      </g>
    </g>
    <path id="Color_Overlay" data-name="Color Overlay" d="M1034.758,4528.921c-.87-.244-.344-3.292-.257-3.679.151-.66.947-4.167,1.081-4.756a3.924,3.924,0,0,1-.261-1.431c0-1.432.832-2.554,1.895-2.554a1.422,1.422,0,0,1,1.4,1.589,7.788,7.788,0,0,1-.426,1.989c-.119.4-.243.822-.334,1.222a1.105,1.105,0,0,0,1.107,1.395,2.114,2.114,0,0,0,1.746-1.271,6.747,6.747,0,0,0,.715-3.195,3,3,0,0,0-3.306-3.146,3.894,3.894,0,0,0-3.957,4,2.369,2.369,0,0,0,.5,1.578.689.689,0,0,1,.173.724c-.041.169-.134.557-.174.715a.538.538,0,0,1-.519.444.609.609,0,0,1-.239-.051c-1.191-.5-1.9-1.862-1.9-3.63a5.743,5.743,0,0,1,1.6-3.9,6.309,6.309,0,0,1,4.748-1.9,5.728,5.728,0,0,1,4.1,1.627,5.3,5.3,0,0,1,1.551,3.505v.506a7.448,7.448,0,0,1-1.321,4.213,4.341,4.341,0,0,1-3.528,1.835,2.9,2.9,0,0,1-1.97-.791c-.156.634-.407,1.665-.48,1.938-.085.322-.886,3.051-1.812,3.051A.484.484,0,0,1,1034.758,4528.921Z" fill="#fff"/>
  </g>
</svg>
