<svg xmlns="http://www.w3.org/2000/svg" xmlns:xlink="http://www.w3.org/1999/xlink" width="20" height="21" viewBox="0 0 20 21">
  <defs>
    <clipPath id="clip-path">
      <rect id="Rectangle_34" data-name="Rectangle 34" width="20" height="21" transform="translate(67.447 101.515)" fill="none"/>
    </clipPath>
  </defs>
  <g id="Vector_Smart_Object" data-name="Vector Smart Object" transform="translate(-1082 -4510)">
    <g id="Vector_Smart_Object-2" data-name="Vector Smart Object" transform="translate(1014.553 4408.485)">
      <g id="Group_61" data-name="Group 61">
        <g id="Group_60" data-name="Group 60">
          <g id="Group_59" data-name="Group 59" clip-path="url(#clip-path)">
            <path id="Path_191" data-name="Path 191" d="M86.622,111.4c-.078.057-.157.111-.235.165v-8.031a1.93,1.93,0,0,0-1.832-2.017H70.3a1.93,1.93,0,0,0-1.832,2.017v8.038c-.082-.056-.163-.113-.245-.172-.607-.433-1,.156-.633.719a10.718,10.718,0,0,0,4.215,2.918c-2.236,7.772,5.455,9.007,5.337,5.021,0,.075,0-2.262.008-3.919.2.049.376.1.541.138,0,1.645.007,3.854.007,3.781-.117,3.985,7.579,2.751,5.338-5.021a10.718,10.718,0,0,0,4.215-2.918c.372-.562-.025-1.152-.633-.719Zm-7.589,1.98c-.941-.049-1.29.364-1.336,1a7.211,7.211,0,0,1-.7-.585c-.039-.038-.076-.072-.113-.1a1.307,1.307,0,0,0-1.076-.314,11.076,11.076,0,0,1-6.256-1.142v-7.793c0-1.411.352-1.855,1.617-1.855H83.79c1.2,0,1.622.527,1.622,1.855v7.727a11.017,11.017,0,0,1-6.379,1.208Zm0,0"/>
          </g>
        </g>
        <path id="Path_192" data-name="Path 192" d="M80.412,107.745a2.341,2.341,0,1,0,2.449,2.339,2.4,2.4,0,0,0-2.449-2.339Zm0,0"/>
        <path id="Path_193" data-name="Path 193" d="M77.16,110.085a2.452,2.452,0,1,1-2.449-2.339,2.4,2.4,0,0,1,2.449,2.339Zm0,0"/>
      </g>
    </g>
    <path id="Color_Overlay" data-name="Color Overlay" d="M1094.384,4530.753a2.019,2.019,0,0,1-2.131-2.211c0-.056,0-2.186-.007-3.783-.165-.041-.34-.088-.541-.138,0,1.608-.008,3.855-.008,3.92a2.017,2.017,0,0,1-2.129,2.212c-2.044,0-4.629-2.3-3.209-7.235a10.723,10.723,0,0,1-4.215-2.918c-.373-.563.025-1.152.632-.719q.123.089.246.172v-8.037a1.929,1.929,0,0,1,1.832-2.016h14.253a1.93,1.93,0,0,1,1.833,2.016v8.03c.078-.053.156-.108.234-.165.608-.433,1.005.157.633.719a10.719,10.719,0,0,1-4.216,2.918c1.424,4.936-1.161,7.235-3.207,7.235Zm-2.942-8.578c.036.032.074.065.113.1a6.936,6.936,0,0,0,.7.585c.045-.637.395-1.049,1.335-1a11.03,11.03,0,0,0,6.379-1.208v-7.728c0-1.329-.423-1.856-1.623-1.856h-12.615c-1.266,0-1.617.445-1.617,1.856v7.792a11.08,11.08,0,0,0,6.255,1.143c.05,0,.1,0,.143,0A1.218,1.218,0,0,1,1091.443,4522.175Zm1.072-3.605a2.452,2.452,0,1,1,2.45,2.339A2.4,2.4,0,0,1,1092.515,4518.57Zm-5.7,0a2.452,2.452,0,1,1,2.45,2.339A2.4,2.4,0,0,1,1086.814,4518.57Z" fill="#fff"/>
  </g>
</svg>
