<svg xmlns="http://www.w3.org/2000/svg" width="15.001" height="12.001" viewBox="0 0 15.001 12.001">
  <g id="Vector_Smart_Object" data-name="Vector Smart Object" transform="translate(-977 -4466.999)">
    <g id="Vector_Smart_Object-2" data-name="Vector Smart Object" transform="translate(575.789 4242.265)">
      <path id="Path_189" data-name="Path 189" d="M414.675,227.723c.007.13.009.26.009.391a8.625,8.625,0,0,1-8.756,8.62,8.806,8.806,0,0,1-4.717-1.361,6.444,6.444,0,0,0,.734.042,6.227,6.227,0,0,0,3.821-1.3,3.076,3.076,0,0,1-2.873-2.1,3.217,3.217,0,0,0,.578.054,3.151,3.151,0,0,0,.81-.106,3.046,3.046,0,0,1-2.467-2.971v-.038a3.1,3.1,0,0,0,1.394.378,3.013,3.013,0,0,1-1.369-2.521,2.98,2.98,0,0,1,.416-1.523,8.778,8.778,0,0,0,6.343,3.165,2.987,2.987,0,0,1-.08-.69,3.053,3.053,0,0,1,3.078-3.028,3.1,3.1,0,0,1,2.246.955,6.191,6.191,0,0,0,1.955-.736,3.055,3.055,0,0,1-1.354,1.677,6.211,6.211,0,0,0,1.767-.476A6.18,6.18,0,0,1,414.675,227.723Z" fill="#5a5b5e"/>
    </g>
    <path id="Color_Overlay" data-name="Color Overlay" d="M977,4477.639a6.662,6.662,0,0,0,.734.042,6.233,6.233,0,0,0,3.822-1.3,3.076,3.076,0,0,1-2.873-2.1,3.153,3.153,0,0,0,.578.054,3.2,3.2,0,0,0,.81-.106,3.046,3.046,0,0,1-2.467-2.971v-.039a3.084,3.084,0,0,0,1.394.378,3.01,3.01,0,0,1-1.369-2.521,2.979,2.979,0,0,1,.416-1.522,8.776,8.776,0,0,0,6.343,3.165,3.029,3.029,0,0,1,3-3.719,3.1,3.1,0,0,1,2.246.956,6.182,6.182,0,0,0,1.955-.736,3.051,3.051,0,0,1-1.355,1.677,6.238,6.238,0,0,0,1.768-.476,6.2,6.2,0,0,1-1.537,1.568q.01.193.01.391a8.625,8.625,0,0,1-8.757,8.621A8.811,8.811,0,0,1,977,4477.639Z" fill="#fff"/>
  </g>
</svg>
