<svg xmlns="http://www.w3.org/2000/svg" width="15.001" height="15" viewBox="0 0 15.001 15">
  <g id="Vector_Smart_Object" data-name="Vector Smart Object" transform="translate(-724 -2198)">
    <g id="Vector_Smart_Object-2" data-name="Vector Smart Object" transform="translate(723.724 2197.688)">
      <g id="Group_44" data-name="Group 44">
        <path id="Path_139" data-name="Path 139" d="M13.009,10.724a2.219,2.219,0,0,0-1.755.827L4.8,8.344a2.1,2.1,0,0,0,.063-.531A2.254,2.254,0,0,0,4.8,7.281l6.429-3.208a2.294,2.294,0,1,0-.468-.936L4.337,6.347a2.295,2.295,0,1,0-1.776,3.759,2.214,2.214,0,0,0,1.755-.828l6.451,3.208a2.174,2.174,0,0,0-.062.531,2.285,2.285,0,1,0,4.57,0A2.266,2.266,0,0,0,13.009,10.724Z" fill="#fff"/>
      </g>
    </g>
    <path id="Color_Overlay" data-name="Color Overlay" d="M734.429,2210.7a2.189,2.189,0,0,1,.062-.531l-6.451-3.208a2.21,2.21,0,0,1-1.755.828,2.294,2.294,0,1,1,1.776-3.758l6.427-3.209a2.3,2.3,0,1,1,.468.936l-6.429,3.208a2.285,2.285,0,0,1,.063.532,2.129,2.129,0,0,1-.063.531l6.45,3.207a2.223,2.223,0,0,1,1.757-.827A2.266,2.266,0,0,1,739,2210.7a2.286,2.286,0,1,1-4.571,0Z" fill="#798791"/>
  </g>
</svg>
