<svg xmlns="http://www.w3.org/2000/svg" width="16.232" height="14.342" viewBox="0 0 16.232 14.342">
  <g id="heart" transform="translate(-457.626 -769.565)" fill="#f5343b">
    <path d="M 465.7565307617188 783.1574096679688 C 465.5941467285156 783.1574096679688 465.4362182617188 783.09375 465.3118591308594 782.9780883789062 C 464.2628173828125 782.00537109375 462.3323669433594 780.2017822265625 459.5726928710938 777.6160888671875 C 457.9756774902344 775.9526977539062 457.9810791015625 773.2413330078125 459.5877075195312 771.5632934570312 C 460.3860168457031 770.7290649414062 461.1821899414062 770.3236083984375 462.0219116210938 770.3236083984375 C 462.9864807128906 770.3236083984375 464.0653991699219 770.8770751953125 465.2287292480469 771.968505859375 L 465.7419738769531 772.4500732421875 L 466.2551574707031 771.9684448242188 C 467.4405517578125 770.85595703125 468.4880981445312 770.315185546875 469.4576416015625 770.315185546875 C 470.2944946289062 770.315185546875 471.0919189453125 770.723388671875 471.8955383300781 771.5631713867188 C 473.5022583007812 773.2415161132812 473.5074768066406 775.9533081054688 471.9102783203125 777.6165771484375 C 468.6888732910156 780.6455688476562 467.0291442871094 782.2027587890625 466.2040405273438 782.9757080078125 C 466.0789794921875 783.0929565429688 465.9201049804688 783.1574096679688 465.7565307617188 783.1574096679688 Z" stroke="none"/>
    <path d="M 469.4576721191406 771.065185546875 C 468.6985168457031 771.065185546875 467.7937316894531 771.5531005859375 466.7684020996094 772.5153198242188 L 465.7420349121094 773.478515625 L 464.715576171875 772.5155029296875 C 463.6958312988281 771.5587768554688 462.78955078125 771.0736083984375 462.0219116210938 771.0736083984375 C 461.3977661132812 771.0736083984375 460.7788391113281 771.4033813476562 460.1294250488281 772.0819702148438 C 458.8018798828125 773.4685668945312 458.7915649414062 775.7047119140625 460.1006469726562 777.0830078125 C 462.7943420410156 779.6068725585938 464.6955261230469 781.3832397460938 465.75634765625 782.367431640625 C 466.5995178222656 781.577392578125 468.2501220703125 780.0286254882812 471.3819274902344 777.0838623046875 C 472.6916198730469 775.7057495117188 472.681640625 773.4688720703125 471.3536987304688 772.0817260742188 C 470.6990966796875 771.397705078125 470.0789184570312 771.065185546875 469.4576721191406 771.065185546875 L 469.4576721191406 771.065185546875 M 469.4576416015625 769.565185546875 C 470.4212341308594 769.565185546875 471.4241027832031 769.9857177734375 472.4374084472656 771.0446166992188 C 474.3261108398438 773.0175170898438 474.3363037109375 776.188720703125 472.4374084472656 778.150390625 C 469.2520141601562 781.1455078125 467.5870056152344 782.7078247070312 466.716796875 783.5230712890625 C 466.171875 784.0338134765625 465.3479919433594 784.0358276367188 464.8010864257812 783.5272827148438 C 463.9241027832031 782.714111328125 462.248291015625 781.1508178710938 459.0459899902344 778.150390625 C 457.1470947265625 776.188720703125 457.1570129394531 773.0175170898438 459.0459899902344 771.0446166992188 C 461.4502563476562 768.5322875976562 463.8331298828125 769.6307373046875 465.7419128417969 771.4215698242188 C 466.8522644042969 770.3795166015625 468.1168823242188 769.565185546875 469.4576416015625 769.565185546875 Z" stroke="none" fill="#fff"/>
  </g>
</svg>
