<svg xmlns="http://www.w3.org/2000/svg" width="40.712" height="50" viewBox="0 0 40.712 50">
  <g id="Group_146" data-name="Group 146" transform="translate(-769 -613)">
    <path id="Path_46" data-name="Path 46" d="M53.725,142.129a14.363,14.363,0,0,0,22.75-7.992,4.872,4.872,0,0,1,2-2.9,8.717,8.717,0,0,1,3.825-1.473,1.193,1.193,0,0,1,1.311.494,1.239,1.239,0,0,1-.067,1.4,5.463,5.463,0,0,0-.728,4.49.954.954,0,0,0,.276.435,15.869,15.869,0,0,1,4.775,6.823.345.345,0,0,0,.394.257,9.131,9.131,0,0,1,1.485.065,1.809,1.809,0,0,1,1.494,1.83q.009,2.372,0,4.742A1.836,1.836,0,0,1,89.6,152.14a9.041,9.041,0,0,1-1.2.034.382.382,0,0,0-.443.309,15.6,15.6,0,0,1-4.2,6.477A13.532,13.532,0,0,0,82.24,160.6a5.473,5.473,0,0,0-1.132,3.529q.018.582,0,1.164a1.042,1.042,0,0,1-1.06,1.1q-3.13.032-6.259,0a1.012,1.012,0,0,1-1.051-1.092c-.01-.469,0-.936,0-1.441H67.767c0,.384,0,.838,0,1.291a1.089,1.089,0,0,1-1.212,1.2q-2.986,0-5.969,0c-.8,0-1.166-.395-1.192-1.2a8.743,8.743,0,0,0-2.27-5.821,18.336,18.336,0,0,1-4.207-7.586A13.868,13.868,0,0,1,53.6,142.4C53.628,142.327,53.667,142.254,53.725,142.129Z" transform="translate(718.468 496.588)" fill="#2187db" fill-rule="evenodd"/>
    <path id="Path_47" data-name="Path 47" d="M62.524,116.412a12.043,12.043,0,1,1-11.992,12.03A12.022,12.022,0,0,1,62.524,116.412Z" transform="translate(718.468 496.588)" fill="#ee383e" fill-rule="evenodd"/>
    <path id="Path_48" data-name="Path 48" d="M54.639,119.394l15.756,18.17a12.025,12.025,0,0,1-15.756-18.17Z" transform="translate(718.468 496.588)" fill="#d61d23" fill-rule="evenodd"/>
    <text id="_" data-name="`" transform="translate(777.185 631.99)" fill="#fff" font-size="16" font-family="IndianRupee-Regular, Indian Rupee"><tspan x="0" y="0">`</tspan></text>
    <path id="Path_49" data-name="Path 49" d="M79.959,142.036a1.56,1.56,0,0,0,1.522,1.548,1.587,1.587,0,0,0,1.551-1.532,1.556,1.556,0,0,0-1.556-1.554A1.53,1.53,0,0,0,79.959,142.036Z" transform="translate(718.468 496.588)" fill="#fff" fill-rule="evenodd"/>
    <path id="Path_50" data-name="Path 50" d="M59.412,165.152c.026.809.39,1.2,1.192,1.2q2.983,0,5.969,0a1.089,1.089,0,0,0,1.212-1.2c0-.453,0-.907,0-1.291h4.968c0,.5-.009.972,0,1.441a1.012,1.012,0,0,0,1.051,1.092q3.129.029,6.259,0a1.042,1.042,0,0,0,1.06-1.1q.019-.582,0-1.164a5.473,5.473,0,0,1,1.132-3.529,13.585,13.585,0,0,1,1.517-1.641,16.36,16.36,0,0,0,3.514-4.756H53.808a18.715,18.715,0,0,0,3.334,5.126A8.743,8.743,0,0,1,59.412,165.152Z" transform="translate(718.468 496.588)" fill="#005e9e" fill-rule="evenodd"/>
  </g>
</svg>
