<svg xmlns="http://www.w3.org/2000/svg" width="60" height="49" viewBox="0 0 60 49">
  <g id="Group_23" data-name="Group 23" transform="translate(-262.284 -368.796)">
    <path id="Path_38" data-name="Path 38" d="M293.321,392.82,285.267,383a1.825,1.825,0,0,0-1.028-.6.5.5,0,0,0-.26-.078H272.03a.517.517,0,0,0-.278.089,1.831,1.831,0,0,0-.991.593l-8.054,9.823a1.866,1.866,0,1,0,2.889,2.363l5.9-7.2V404.82a.53.53,0,0,0,.531.53h1.45l.036,10.587a1.868,1.868,0,0,0,3.736-.013l-.037-10.574h1.345l.037,10.587a1.868,1.868,0,0,0,3.736-.013L282.3,405.35h1.683a.531.531,0,0,0,.531-.53V387.96l5.922,7.224a1.867,1.867,0,1,0,2.89-2.363Z" fill="#005e9e"/>
    <path id="Path_39" data-name="Path 39" d="M283.233,375.267a5.6,5.6,0,1,1-5.6-5.594A5.6,5.6,0,0,1,283.233,375.267Z" fill="#f8d484"/>
    <path id="Path_40" data-name="Path 40" d="M275.226,371.732s3.262,4.227,8.228,2.984c0,0-.483-5.835-5.822-5.885a5.935,5.935,0,0,0-3.07.746,4.934,4.934,0,0,0-2.739,4.808S273.451,374.249,275.226,371.732Z" fill="#343434"/>
    <path id="Path_41" data-name="Path 41" d="M321.862,392.785l-8.056-9.823a1.828,1.828,0,0,0-1.027-.6.522.522,0,0,0-.262-.078H299.826a.514.514,0,0,0-.279.09,1.822,1.822,0,0,0-.99.593l-8.054,9.823a1.866,1.866,0,1,0,2.888,2.363l6.959-7.214-3.357,16.851a.531.531,0,0,0,.531.53h4.5l.035,10.587a1.868,1.868,0,0,0,3.736-.013l-.036-10.574H307.1l.035,10.587a1.868,1.868,0,0,0,3.735-.013l-.036-10.574h4.888a.531.531,0,0,0,.533-.53L312,387.16l6.977,7.988a1.867,1.867,0,0,0,2.89-2.363Z" fill="#ee383e"/>
    <path id="Path_42" data-name="Path 42" d="M311.774,375.232a5.6,5.6,0,1,1-5.6-5.6A5.6,5.6,0,0,1,311.774,375.232Z" fill="#f8d484"/>
    <path id="Path_43" data-name="Path 43" d="M303.766,371.7a6.384,6.384,0,0,0,3.811,2.149l-.788-2.445s2.241,2.992,4.984,2.949c0,0-.263-5.5-5.6-5.554a5.923,5.923,0,0,0-3.069.746,4.932,4.932,0,0,0-2.739,4.808S301.991,374.214,303.766,371.7Z" fill="#343434"/>
    <path id="Path_44" data-name="Path 44" d="M311.774,374.094s3.9.29,3.066,5.554c0,0-.682,2.029.116,2.631,0,0-5.651-.394-3.3-8.184" fill="#343434"/>
    <path id="Path_45" data-name="Path 45" d="M300.49,374.094s-3.9.29-3.067,5.554c0,0,.683,2.029-.115,2.631,0,0,5.65-.394,3.3-8.184" fill="#343434"/>
    <rect id="Rectangle_19" data-name="Rectangle 19" width="3.736" height="0.443" transform="translate(273.48 405.35)" fill="#2187db"/>
    <rect id="Rectangle_20" data-name="Rectangle 20" width="3.737" height="0.443" transform="translate(278.587 405.35)" fill="#2187db"/>
    <rect id="Rectangle_21" data-name="Rectangle 21" width="3.736" height="0.443" transform="translate(302.074 405.35)" fill="#d62b27"/>
    <rect id="Rectangle_22" data-name="Rectangle 22" width="3.737" height="0.443" transform="translate(307.181 405.35)" fill="#d62b27"/>
  </g>
</svg>
