<svg xmlns="http://www.w3.org/2000/svg" width="28" height="25" viewBox="0 0 28 25">
  <g id="Vector_Smart_Object" data-name="Vector Smart Object" transform="translate(-258.899 -398.82)">
    <path id="Path_85" data-name="Path 85" d="M273.866,411.563a4.136,4.136,0,0,1,3.5-2.513,52.93,52.93,0,0,1,5.592,0,4.217,4.217,0,0,1,3.906,4.078c.075,3.552.019,7.106.019,10.688h-7.189a4.5,4.5,0,0,0-3.315-4.337,4.467,4.467,0,0,0,1.291-4.767A4.387,4.387,0,0,0,273.866,411.563Z" fill="#004e8e" fill-rule="evenodd"/>
    <path id="Path_86" data-name="Path 86" d="M270.669,419.558a4.535,4.535,0,0,0-3.025,4.256H258.9v-.407q0-3.165,0-6.326a4.408,4.408,0,0,1,4.458-4.577c1.709,0,3.418.005,5.127.039a3.4,3.4,0,0,1,1.672.572A4.663,4.663,0,0,0,270.669,419.558Z" fill="#032240" fill-rule="evenodd"/>
    <path id="Path_87" data-name="Path 87" d="M279.922,398.82a4.591,4.591,0,1,1-4.472,4.6A4.531,4.531,0,0,1,279.922,398.82Z" fill="#004e8e" fill-rule="evenodd"/>
    <path id="Path_88" data-name="Path 88" d="M265.368,402.341a4.581,4.581,0,1,1-4.481,4.589A4.512,4.512,0,0,1,265.368,402.341Z" fill="#032240" fill-rule="evenodd"/>
    <path id="Path_89" data-name="Path 89" d="M276.708,416.057a3.282,3.282,0,0,1-3.226,3.316,3.3,3.3,0,0,1-.023-6.6A3.259,3.259,0,0,1,276.708,416.057Z" fill="#e61f2d" fill-rule="evenodd"/>
    <path id="Path_90" data-name="Path 90" d="M278.46,423.819h-9.574a3,3,0,0,1,1.705-2.907,3.548,3.548,0,0,1,1.3-.324c1.229-.042,2.459-.037,3.689,0A3.116,3.116,0,0,1,278.46,423.819Z" fill="#e61f2d" fill-rule="evenodd"/>
  </g>
</svg>
