<svg xmlns="http://www.w3.org/2000/svg" width="16.232" height="14.342" viewBox="0 0 16.232 14.342">
  <g id="heart" transform="translate(-828.625 -769.565)" fill="none">
    <path d="M830.046,771.045c2.4-2.512,4.787-1.414,6.7.377,1.908-1.791,4.272-2.909,6.7-.377a5.154,5.154,0,0,1,0,7.106c-3.185,3-4.85,4.557-5.721,5.373a1.391,1.391,0,0,1-1.916,0c-.877-.813-2.553-2.376-5.755-5.377A5.153,5.153,0,0,1,830.046,771.045Z" stroke="none"/>
    <path d="M 840.45751953125 771.065185546875 C 839.6984252929688 771.065185546875 838.7935791015625 771.5531005859375 837.768310546875 772.5153198242188 L 836.741943359375 773.4785766601562 L 835.7155151367188 772.5155029296875 C 834.6957397460938 771.5587768554688 833.7894897460938 771.0736083984375 833.0217895507812 771.0736083984375 C 832.3976440429688 771.0736083984375 831.7787475585938 771.4033813476562 831.1293334960938 772.0819702148438 C 829.8017578125 773.4685668945312 829.7915649414062 775.704833984375 831.1006469726562 777.0831298828125 C 833.7977905273438 779.6101684570312 835.6992797851562 781.3867797851562 836.7562866210938 782.367431640625 C 837.6098022460938 781.5676879882812 839.268798828125 780.010986328125 842.3818359375 777.0839233398438 C 843.6914672851562 775.7057495117188 843.6815185546875 773.4688720703125 842.3535766601562 772.0817260742188 C 841.6990356445312 771.397705078125 841.0787963867188 771.065185546875 840.4575805664062 771.065185546875 L 840.45751953125 771.065185546875 M 840.45751953125 769.565185546875 C 841.4210815429688 769.565185546875 842.4240112304688 769.9857177734375 843.4373168945312 771.0446166992188 C 845.3259887695312 773.0175170898438 845.336181640625 776.188720703125 843.4373168945312 778.150390625 C 840.2520141601562 781.1455078125 838.5869140625 782.7078247070312 837.7166748046875 783.5230712890625 C 837.1718139648438 784.0338134765625 836.3480224609375 784.0359497070312 835.801025390625 783.5272827148438 C 834.9240112304688 782.714111328125 833.2482299804688 781.1508178710938 830.0458984375 778.150390625 C 828.14697265625 776.188720703125 828.1569213867188 773.0175170898438 830.0458984375 771.0446166992188 C 832.4501953125 768.5322265625 834.8330078125 769.6307983398438 836.7418212890625 771.4215698242188 C 837.8521118164062 770.3795166015625 839.1167602539062 769.565185546875 840.45751953125 769.565185546875 Z" stroke="none" fill="#fff"/>
  </g>
</svg>
