<svg xmlns="http://www.w3.org/2000/svg" width="48" height="50" viewBox="0 0 48 50">
  <g id="Group_144" data-name="Group 144" transform="translate(-481 -616)">
    <g id="Layer_2" data-name="Layer 2" transform="translate(437.562 413.602)">
      <path id="Path_32" data-name="Path 32" d="M57.592,252.4l.19-2.363s.242-2.39-3.477-4.083c0,0-4.5-2.668-5.862-3.712a10.543,10.543,0,0,1-3-4.454l-1.358-3.062a8.537,8.537,0,0,1-.643-2.551l.143-7.378a1.083,1.083,0,0,1,1.048-.928s1.288-.086,1.475,1.764l.525,4.681s-.164,1.067-.713,1.393a1.355,1.355,0,0,0-.031,2.056l3.75,4.812s.6.415-.185-.652l-3.577-4.634a1.056,1.056,0,0,1,.9-1.53,4.232,4.232,0,0,1,3.522,1.486l3.481,3.575a8.229,8.229,0,0,0,3.757,1.338s4.449-.089,7.535,5.061a9.107,9.107,0,0,1,1.144,5.662l0,3.479-8.619.043Z" fill="#d61d23" fill-rule="evenodd"/>
      <path id="Path_33" data-name="Path 33" d="M77.284,252.4l-.19-2.363s-.242-2.39,3.478-4.083c0,0,4.5-2.668,5.862-3.712a10.552,10.552,0,0,0,3-4.454l1.357-3.062a8.5,8.5,0,0,0,.643-2.551l-.142-7.378a1.084,1.084,0,0,0-1.048-.928s-1.288-.086-1.476,1.764l-.524,4.681s.164,1.067.712,1.393a1.355,1.355,0,0,1,.031,2.056l-3.749,4.812s-.605.415.185-.652L89,233.284a1.056,1.056,0,0,0-.9-1.53,4.232,4.232,0,0,0-3.522,1.486L81.1,236.814a8.234,8.234,0,0,1-3.758,1.338s-4.449-.089-7.534,5.061a9.107,9.107,0,0,0-1.144,5.662l0,3.479,8.618.043Z" fill="#d61d23" fill-rule="evenodd"/>
    </g>
    <path id="Path_34" data-name="Path 34" d="M70.29,205.614a3.3,3.3,0,1,1-3.3-3.216A3.259,3.259,0,0,1,70.29,205.614Z" transform="translate(437.562 413.602)" fill="#005e9e"/>
    <path id="Path_35" data-name="Path 35" d="M71.99,210.57H62.013a1.642,1.642,0,0,0-1.664,1.619v13.218a1.643,1.643,0,0,0,1.664,1.619h1.556v9.486a1.642,1.642,0,0,0,1.662,1.618h3.511a1.642,1.642,0,0,0,1.662-1.618v-9.486H71.99a1.64,1.64,0,0,0,1.663-1.619V212.189A1.64,1.64,0,0,0,71.99,210.57Z" transform="translate(437.562 413.602)" fill="#005e9e"/>
    <path id="Path_36" data-name="Path 36" d="M67.02,202.4a3.216,3.216,0,1,1,0,6.43" transform="translate(437.562 413.602)" fill="#2187db"/>
    <path id="Path_37" data-name="Path 37" d="M67.02,238.131h1.756a1.642,1.642,0,0,0,1.663-1.618v-9.486h1.584a1.641,1.641,0,0,0,1.664-1.619V212.189a1.64,1.64,0,0,0-1.664-1.619H66.892" transform="translate(437.562 413.602)" fill="#2187db"/>
  </g>
</svg>
