<svg xmlns="http://www.w3.org/2000/svg" width="42.73" height="51.009" viewBox="0 0 42.73 51.009">
  <g id="Group_145" data-name="Group 145" transform="translate(-625.27 -613)">
    <g id="Layer_2" data-name="Layer 2" transform="translate(233.572 250.936)">
      <path id="Path_51" data-name="Path 51" d="M434.428,365.566a3.544,3.544,0,0,0-6.42-2.03v0c-2.423,2.743-2.2,6.808-2.938,10.2a11.52,11.52,0,0,1-5.347,7.591c-7.786,3.078-15.727,0-15.727,0a15.41,15.41,0,0,0-5.426-1.112c-4.52.545-4.245,4.261-4.245,4.261a3.569,3.569,0,0,0,3.538,3.657,2.747,2.747,0,0,0,2.753-2.412c.157-1.518,1.1-1.323,1.1-1.323,1.886,0,1.1,4.98,1.1,4.98-.195,3.074,3.382,4.2,3.382,4.2a27.584,27.584,0,0,0,6.8,1.128,21.479,21.479,0,0,0,6.668-.992,6.319,6.319,0,0,0,4.695-4.961c.234-4.124,2.28-12.762,2.28-12.762a9.39,9.39,0,0,1,4.966-7h0A3.513,3.513,0,0,0,434.428,365.566Z" fill="#005e9e"/>
      <path id="Path_52" data-name="Path 52" d="M431.188,405.1a28.535,28.535,0,0,1-36.958-1.26" fill="none" stroke="#d51d22" stroke-linecap="round" stroke-linejoin="round" stroke-width="3.586"/>
      <path id="Path_53" data-name="Path 53" d="M422,395.793a24.356,24.356,0,0,1-8.8,1.6,24,24,0,0,1-9.792-2.013" fill="none" stroke="#d51d22" stroke-linecap="round" stroke-linejoin="round" stroke-width="2.241"/>
    </g>
    <g id="Layer_3" data-name="Layer 3" transform="translate(233.572 250.936)">
      <path id="Path_54" data-name="Path 54" d="M405.491,397.032s-.551,7.328-6.086,10.564" fill="none" stroke="#d51d22" stroke-linecap="round" stroke-linejoin="round" stroke-width="2.241"/>
      <path id="Path_55" data-name="Path 55" d="M419.668,397.032s0,7.48,6.66,10.878" fill="none" stroke="#d51d22" stroke-linecap="round" stroke-linejoin="round" stroke-width="2.241"/>
    </g>
  </g>
</svg>
