<svg xmlns="http://www.w3.org/2000/svg" width="39" height="48" viewBox="0 0 39 48">
  <g id="Group_37" data-name="Group 37" transform="translate(-4.475 -9.943)">
    <g id="Group_25" data-name="Group 25">
      <path id="Path_58" data-name="Path 58" d="M30.725,11.394l-5.25,28.53,3.75.751C37.163,34.856,40.569,11.394,30.725,11.394Z" fill="#343434"/>
    </g>
    <g id="Group_26" data-name="Group 26">
      <path id="Path_59" data-name="Path 59" d="M30.725,11.394c-1.312-.8-8.24-2.824-13.5,0-6.469,3.472-12.125,15.891-3,28.53.013.018,6.75-.751,6.75-.751Z" fill="#343434"/>
    </g>
    <g id="Group_27" data-name="Group 27">
      <path id="Path_60" data-name="Path 60" d="M29.266,36.422h-.041V34.668h-10.5V36.42c0,1.716-.007,3.582-1.5,4.71V57.943h13.5V41.1C29.271,39.973,29.266,38.124,29.266,36.422Z" fill="#ffd7a3"/>
    </g>
    <g id="Group_28" data-name="Group 28">
      <path id="Path_61" data-name="Path 61" d="M23.975,50.435a17.2,17.2,0,0,1-4.5-.586v8.094h10.5V49.354A16.338,16.338,0,0,1,23.975,50.435Z" fill="#d61d23"/>
    </g>
    <g id="Group_29" data-name="Group 29">
      <path id="Path_62" data-name="Path 62" d="M29.975,44.429a4.127,4.127,0,0,0,.75.134V41.1c-1.455-1.131-1.459-2.981-1.459-4.682v-1.8l-8.29.044-2.25.751C20.225,37.108,24.819,43.021,29.975,44.429Z" fill="#fdc88e"/>
    </g>
    <g id="Group_30" data-name="Group 30">
      <path id="Path_63" data-name="Path 63" d="M34.475,24.908c0,6.012-5.973,13.514-10.5,13.514s-10.5-7.5-10.5-13.514,4.7-8.259,10.5-8.259S34.475,18.9,34.475,24.908Z" fill="#ffe1b2"/>
    </g>
    <g id="Group_31" data-name="Group 31">
      <path id="Path_64" data-name="Path 64" d="M25.475,12.9a15.378,15.378,0,0,0-2.908.889l-.092-.139-.421.332c-.622.236-1.078.419-1.078.419l.175.293c-2.847,2.245-9.342,7.381-9.926,7.966-.75.751,4.5,19.905,4.5,9.009,0-9.1,5.052-10.906,9.75-12.012a3.531,3.531,0,0,0,3-3C28.725,15.4,26.225,12.9,25.475,12.9Z" fill="#343434"/>
    </g>
    <g id="Group_32" data-name="Group 32">
      <path id="Path_65" data-name="Path 65" d="M27.725,17.4c1.375,4.943,4.125,7.179,6.7,7.836,1.413.36.8-4.082.8-4.082s-2-5.13-2.25-5.256-2.25-4.5-2.25-4.5l-4.5,3.754Z" fill="#343434"/>
    </g>
    <g id="Group_34" data-name="Group 34">
      <g id="Group_33" data-name="Group 33">
        <path id="Path_66" data-name="Path 66" d="M18.049,40.231c-.7,1.142-2.135,1.946-5.074,1.946h-.25a8.254,8.254,0,0,0-8.25,8.259V55.69a2.251,2.251,0,0,0,2.25,2.252h15.39Z" fill="#005e9e"/>
      </g>
    </g>
    <g id="Group_36" data-name="Group 36">
      <g id="Group_35" data-name="Group 35">
        <path id="Path_67" data-name="Path 67" d="M29.9,40.231c.7,1.142,2.135,1.946,5.074,1.946h.25a8.254,8.254,0,0,1,8.25,8.259V55.69a2.251,2.251,0,0,1-2.25,2.252H25.835Z" fill="#005e9e"/>
      </g>
    </g>
  </g>
</svg>
