<svg xmlns="http://www.w3.org/2000/svg" width="17.999" height="20.259" viewBox="0 0 17.999 20.259">
  <path id="Color_Overlay" data-name="Color Overlay" d="M534.766,4936a.759.759,0,0,1-.766-.753v-10.613a.759.759,0,0,1,.766-.753h16.468a.758.758,0,0,1,.766.753v10.613a.759.759,0,0,1-.766.753Zm6.527-7.288a1.656,1.656,0,0,0,.663,1.322v2.759a.838.838,0,0,0,.845.833h.4a.839.839,0,0,0,.846-.833v-2.759a1.655,1.655,0,0,0,.661-1.322,1.707,1.707,0,0,0-3.414,0Zm-2.546-6.009v-2.784a4.254,4.254,0,0,1,8.507,0v2.784Z" transform="translate(-534 -4915.742)" fill="#798691"/>
</svg>
