<svg xmlns="http://www.w3.org/2000/svg" width="31.021" height="23.989" viewBox="0 0 31.021 23.989">
  <g id="Group_153" data-name="Group 153" transform="translate(-122.99 -4996.011)">
    <g id="Layer_2" data-name="Layer 2" transform="translate(-52.657 4528.054)">
      <rect id="Rectangle_40" data-name="Rectangle 40" width="29.515" height="18.796" rx="0.491" transform="translate(176.4 468.709)" fill="none" stroke="#798691" stroke-width="1.506"/>
    </g>
    <g id="Layer_3" data-name="Layer 3" transform="translate(-52.657 4528.054)">
      <path id="Path_211" data-name="Path 211" d="M200.846,491.945v-1.6a.491.491,0,0,0-.485-.5H181.953a.491.491,0,0,0-.484.5v1.6Zm-5.095-.911a.408.408,0,0,1-.4.414h-6.955a.415.415,0,0,1,0-.83h6.955A.408.408,0,0,1,195.751,491.034Z" fill="#798691"/>
      <rect id="Rectangle_41" data-name="Rectangle 41" width="7.335" height="1.819" transform="translate(187.49 488.112)" fill="#798691"/>
      <g id="Group_75" data-name="Group 75">
        <path id="Path_212" data-name="Path 212" d="M194.321,475.608a.223.223,0,0,0-.165-.066h-1.23a2.587,2.587,0,0,0-.46-1.065h1.675a.218.218,0,0,0,.165-.066.231.231,0,0,0,.065-.17v-.754a.231.231,0,0,0-.065-.17.221.221,0,0,0-.165-.066h-5.983a.223.223,0,0,0-.165.066.234.234,0,0,0-.064.17v.983a.228.228,0,0,0,.068.166.218.218,0,0,0,.161.071H189.2q1.518,0,1.928.835h-2.97a.223.223,0,0,0-.165.066.236.236,0,0,0-.064.17v.755a.238.238,0,0,0,.064.17.223.223,0,0,0,.165.066h3.071a1.436,1.436,0,0,1-.738.923,3.169,3.169,0,0,1-1.528.319h-.806a.217.217,0,0,0-.161.07.231.231,0,0,0-.068.166v.94a.226.226,0,0,0,.064.163q1.381,1.507,3.581,4.222a.212.212,0,0,0,.18.09h1.4a.209.209,0,0,0,.208-.134.205.205,0,0,0-.029-.25q-2.1-2.648-3.3-3.964a3.6,3.6,0,0,0,1.985-.813,2.786,2.786,0,0,0,.928-1.73h1.208a.219.219,0,0,0,.165-.066.238.238,0,0,0,.064-.17v-.755a.238.238,0,0,0-.064-.17Zm0,0" fill="#798691"/>
      </g>
    </g>
  </g>
</svg>
