<svg xmlns="http://www.w3.org/2000/svg" xmlns:xlink="http://www.w3.org/1999/xlink" width="104.44" height="104.4" viewBox="0 0 104.44 104.4">
  <defs>
    <clipPath id="clip-path">
      <circle id="Ellipse_56_copy" data-name="Ellipse 56 copy" cx="43.66" cy="43.66" r="43.66" transform="translate(720.46 1455.39)" fill="#69d3ff"/>
    </clipPath>
  </defs>
  <g id="Group_151" data-name="Group 151" transform="translate(-710.29 -1460.59)">
    <ellipse id="Ellipse_56_copy_5" data-name="Ellipse 56 copy 5" cx="52.22" cy="52.2" rx="52.22" ry="52.2" transform="translate(710.29 1460.59)" fill="#bae9fd"/>
    <g id="Ellipse_56_copy-2" data-name="Ellipse 56 copy" transform="translate(-1 14)">
      <circle id="Ellipse_56_copy-3" data-name="Ellipse 56 copy" cx="43.66" cy="43.66" r="43.66" transform="translate(720.46 1455.39)" fill="#69d3ff"/>
      <g id="Clip" clip-path="url(#clip-path)">
        <path id="Rounded_Rectangle_50_copy_2" data-name="Rounded Rectangle 50 copy 2" d="M713.351,1456.473,800.615,1443a.652.652,0,0,1,.742.523l18.617,104.953a.618.618,0,0,1-.522.718l-106.623-92A.618.618,0,0,1,713.351,1456.473Z" fill="#eaf7fc"/>
      </g>
    </g>
    <g id="Vector_Smart_Object" data-name="Vector Smart Object" transform="translate(539.854 1195.114)">
      <g id="Layer_1" data-name="Layer 1">
        <g id="Group_40" data-name="Group 40">
          <path id="Path_128" data-name="Path 128" d="M229.541,304.582H209.647a1.328,1.328,0,1,0,0,2.656h19.894a1.328,1.328,0,1,0,0-2.656Z" fill="#4569b2" stroke="#4569b2" stroke-width="0.306"/>
          <path id="Path_129" data-name="Path 129" d="M229.541,298.038H209.647a1.328,1.328,0,1,0,0,2.656h19.894a1.328,1.328,0,1,0,0-2.656Z" fill="#4569b2" stroke="#4569b2" stroke-width="0.306"/>
          <path id="Path_130" data-name="Path 130" d="M229.541,311.034H209.647a1.328,1.328,0,1,0,0,2.656h19.894a1.328,1.328,0,1,0,0-2.656Z" fill="#4569b2" stroke="#4569b2" stroke-width="0.306"/>
          <path id="Path_131" data-name="Path 131" d="M209.647,320.142h14.281a13.685,13.685,0,0,1,2.235-2.656H209.647a1.328,1.328,0,1,0,0,2.656Z" fill="#4569b2" stroke="#4569b2" stroke-width="0.306"/>
          <path id="Path_132" data-name="Path 132" d="M209.647,326.594h12.285a4.975,4.975,0,0,1,.649-2.656H209.647a1.328,1.328,0,1,0,0,2.656Z" fill="#4569b2" stroke="#4569b2" stroke-width="0.306"/>
          <path id="Path_133" data-name="Path 133" d="M209.647,333.047h13.21a7.923,7.923,0,0,1-.55-2.656H209.647a1.328,1.328,0,1,0,0,2.656Z" fill="#4569b2" stroke="#4569b2" stroke-width="0.306"/>
        </g>
        <path id="Path_134" data-name="Path 134" d="M248.146,327.208a11.85,11.85,0,1,1-11.85-11.677A11.764,11.764,0,0,1,248.146,327.208Z" fill="#d72027"/>
      </g>
      <g id="Layer_2" data-name="Layer 2">
        <g id="Group_41" data-name="Group 41">
          <path id="Path_135" data-name="Path 135" d="M238.189,333.417a.545.545,0,0,1-.411-.184l-4.521-5.159a.539.539,0,0,1-.065-.609.545.545,0,0,1,.484-.281c.18.013.435.034.777.034a4.741,4.741,0,0,0,2.9-.776,1.669,1.669,0,0,0,.55-1.043h-4.382a.538.538,0,1,1,0-1.075h4.316a1.886,1.886,0,0,0-1.493-1.47l-2.822,0a.538.538,0,1,1,0-1.077h6.772a.538.538,0,1,1,0,1.077h-2a3.3,3.3,0,0,1,.653,1.465h1.346a.538.538,0,1,1,0,1.075H239a2.725,2.725,0,0,1-.928,1.849,5.28,5.28,0,0,1-3.183,1.04l3.715,4.239a.537.537,0,0,1-.055.759A.57.57,0,0,1,238.189,333.417Z" fill="#fff"/>
        </g>
      </g>
    </g>
  </g>
</svg>
