<svg xmlns="http://www.w3.org/2000/svg" width="36.001" height="37.002" viewBox="0 0 36.001 37.002">
  <g id="Vector_Smart_Object" data-name="Vector Smart Object" transform="translate(-663.999 -3384.999)">
    <g id="Vector_Smart_Object-2" data-name="Vector Smart Object" transform="translate(377.134 2977.564)">
      <g id="Layer_1" data-name="Layer 1">
        <g id="Group_55" data-name="Group 55">
          <g id="Group_53" data-name="Group 53">
            <path id="Path_166" data-name="Path 166" d="M290.967,444.436a4.076,4.076,0,0,1-4.1-4.041V416.369a2.988,2.988,0,0,1,3.009-2.961h1.348V410.4a2.992,2.992,0,0,1,3.015-2.961h25.613a2.991,2.991,0,0,1,3.015,2.961v30a4.078,4.078,0,0,1-4.105,4.041Zm-1.091-29.385a1.331,1.331,0,0,0-1.34,1.318v24.026a2.419,2.419,0,0,0,2.432,2.4h27.794a2.42,2.42,0,0,0,2.437-2.4v-30a1.334,1.334,0,0,0-1.347-1.319H294.238a1.335,1.335,0,0,0-1.347,1.319v26.343a.834.834,0,0,1-1.668,0V415.051Z" fill="#d42027" fill-rule="evenodd"/>
          </g>
          <g id="Group_54" data-name="Group 54">
            <path id="Path_167" data-name="Path 167" d="M297.342,421.958a.826.826,0,0,1-.836-.814v-7.5a.83.83,0,0,1,.836-.822h7.627a.829.829,0,0,1,.835.822v7.5a.825.825,0,0,1-.835.814Zm.834-1.635h5.959V414.46h-5.959Z" fill="#d42027" fill-rule="evenodd"/>
          </g>
          <line id="Line_50" data-name="Line 50" x2="8.467" transform="translate(308.904 414.037)" fill="none" stroke="#d42027" stroke-linecap="round" stroke-linejoin="round" stroke-width="1.23"/>
          <line id="Line_51" data-name="Line 51" x2="8.467" transform="translate(308.904 417.391)" fill="none" stroke="#d42027" stroke-linecap="round" stroke-linejoin="round" stroke-width="1.23"/>
          <line id="Line_52" data-name="Line 52" x2="8.467" transform="translate(308.904 420.82)" fill="none" stroke="#d42027" stroke-linecap="round" stroke-linejoin="round" stroke-width="1.23"/>
          <line id="Line_53" data-name="Line 53" x2="8.467" transform="translate(308.904 431.26)" fill="none" stroke="#d42027" stroke-linecap="round" stroke-linejoin="round" stroke-width="1.23"/>
          <line id="Line_54" data-name="Line 54" x2="8.467" transform="translate(308.904 434.613)" fill="none" stroke="#d42027" stroke-linecap="round" stroke-linejoin="round" stroke-width="1.23"/>
          <line id="Line_55" data-name="Line 55" x2="8.467" transform="translate(308.904 438.043)" fill="none" stroke="#d42027" stroke-linecap="round" stroke-linejoin="round" stroke-width="1.23"/>
          <line id="Line_56" data-name="Line 56" x2="8.467" transform="translate(296.687 431.26)" fill="none" stroke="#d42027" stroke-linecap="round" stroke-linejoin="round" stroke-width="1.23"/>
          <line id="Line_57" data-name="Line 57" x2="8.467" transform="translate(296.687 434.613)" fill="none" stroke="#d42027" stroke-linecap="round" stroke-linejoin="round" stroke-width="1.23"/>
          <line id="Line_58" data-name="Line 58" x2="8.467" transform="translate(296.687 438.043)" fill="none" stroke="#d42027" stroke-linecap="round" stroke-linejoin="round" stroke-width="1.23"/>
          <line id="Line_59" data-name="Line 59" x2="20.894" transform="translate(296.687 424.463)" fill="none" stroke="#d42027" stroke-linecap="round" stroke-linejoin="round" stroke-width="1.23"/>
          <line id="Line_60" data-name="Line 60" x2="20.894" transform="translate(296.687 427.854)" fill="none" stroke="#d42027" stroke-linecap="round" stroke-linejoin="round" stroke-width="1.23"/>
        </g>
      </g>
    </g>
    <path id="Color_Overlay" data-name="Color Overlay" d="M668.1,3422a4.076,4.076,0,0,1-4.1-4.042v-24.026a2.989,2.989,0,0,1,3.01-2.962h1.347v-3.01a2.993,2.993,0,0,1,3.015-2.962h25.614a2.992,2.992,0,0,1,3.015,2.962v30a4.079,4.079,0,0,1-4.106,4.042Zm-2.432-28.067v24.026a2.419,2.419,0,0,0,2.432,2.4h27.795a2.421,2.421,0,0,0,2.437-2.4v-30a1.336,1.336,0,0,0-1.346-1.32H671.371a1.336,1.336,0,0,0-1.346,1.32V3414.3a.835.835,0,0,1-1.669,0v-21.688h-1.347A1.331,1.331,0,0,0,665.668,3393.933Zm20.37,21.675h0Zm-12.217,0h0Zm12.217-3.43h0Zm-12.217,0h0Zm12.217-3.354h0Zm-12.217,0h0Zm0-3.406h0Zm0-3.391h0Zm.654-2.506a.826.826,0,0,1-.836-.814v-7.5a.829.829,0,0,1,.836-.822H682.1a.828.828,0,0,1,.835.822v7.5a.825.825,0,0,1-.835.814Zm.834-1.635h5.96v-5.864h-5.96Zm10.728.5h0Zm0-3.43h0Zm0-3.353h0Z" fill="#69d3ff"/>
  </g>
</svg>
