<svg xmlns="http://www.w3.org/2000/svg" width="13.304" height="10.596" viewBox="0 0 13.304 10.596">
  <path id="Twitter" d="M278.514,2200.546a4.866,4.866,0,0,1-1.523.423,2.864,2.864,0,0,0,1.144-1.461,4.507,4.507,0,0,1-1.712.595v0a2.761,2.761,0,0,0-1.985-.832,2.718,2.718,0,0,0-2.745,2.69,2.6,2.6,0,0,0,.071.6h0a7.972,7.972,0,0,1-5.814-2.791,2.661,2.661,0,0,0,.832,3.554,1.792,1.792,0,0,1-1.2-.3,2.6,2.6,0,0,0,2.117,2.629,2.2,2.2,0,0,1-1.142.085,2.587,2.587,0,0,0,2.453,1.827,4.557,4.557,0,0,1-3.8,1.116,8.366,8.366,0,0,0,4.293,1.19,7.543,7.543,0,0,0,7.682-7.857s0-.01,0-.014,0-.024,0-.034,0-.026,0-.041A4.665,4.665,0,0,0,278.514,2200.546Z" transform="translate(-265.209 -2199.272)" fill="#ffc20e"/>
</svg>
