<svg xmlns="http://www.w3.org/2000/svg" width="15.001" height="15" viewBox="0 0 15.001 15">
  <path id="Color_Overlay" data-name="Color Overlay" d="M364.429,2209.7a2.192,2.192,0,0,1,.062-.531l-6.451-3.208a2.212,2.212,0,0,1-1.755.828,2.294,2.294,0,1,1,1.776-3.759l6.427-3.209a2.3,2.3,0,1,1,.468.936l-6.43,3.208a2.238,2.238,0,0,1,.064.532,2.089,2.089,0,0,1-.064.531l6.451,3.207a2.222,2.222,0,0,1,1.756-.827A2.266,2.266,0,0,1,369,2209.7a2.286,2.286,0,1,1-4.571,0Z" transform="translate(-354 -2197)" fill="#005e9e"/>
</svg>
