<svg xmlns="http://www.w3.org/2000/svg" xmlns:xlink="http://www.w3.org/1999/xlink" width="104.44" height="104.4" viewBox="0 0 104.44 104.4">
  <defs>
    <clipPath id="clip-path">
      <ellipse id="Ellipse_56_copy_3" data-name="Ellipse 56 copy 3" cx="43.67" cy="43.65" rx="43.67" ry="43.65" transform="translate(720.88 1583.65)" fill="#69d3ff"/>
    </clipPath>
  </defs>
  <g id="Group_150" data-name="Group 150" transform="translate(-710.69 -1589.09)">
    <ellipse id="Ellipse_56_copy_7" data-name="Ellipse 56 copy 7" cx="52.22" cy="52.2" rx="52.22" ry="52.2" transform="translate(710.69 1589.09)" fill="#bae9fd"/>
    <g id="Ellipse_56_copy_3-2" data-name="Ellipse 56 copy 3" transform="translate(-1 14)">
      <ellipse id="Ellipse_56_copy_3-3" data-name="Ellipse 56 copy 3" cx="43.67" cy="43.65" rx="43.67" ry="43.65" transform="translate(720.88 1583.65)" fill="#69d3ff"/>
      <g id="Clip" clip-path="url(#clip-path)">
        <path id="Rounded_Rectangle_50_copy_4" data-name="Rounded Rectangle 50 copy 4" d="M702.746,1561.3l122.157-20.3a.921.921,0,0,1,1.039.788L852,1699.916a.927.927,0,0,1-.731,1.084L702.015,1562.378A.926.926,0,0,1,702.746,1561.3Z" fill="#eaf7fc"/>
      </g>
    </g>
    <g id="Magnifier" transform="translate(-1 14)">
      <g id="Magnifier-2" data-name="Magnifier" fill="#d61f27" stroke-linejoin="round">
        <path d="M 781.2288208007812 1646.603637695312 C 780.934814453125 1646.603637695312 780.6585693359375 1646.488525390625 780.4510498046875 1646.279541015625 L 774.970458984375 1640.747192382812 C 773.5794067382812 1641.822387695312 771.8677368164062 1642.40966796875 770.100341796875 1642.40966796875 C 765.7001953125 1642.40966796875 762.1204223632812 1638.821044921875 762.1204223632812 1634.409912109375 C 762.1204223632812 1629.998901367188 765.7001953125 1626.410278320312 770.100341796875 1626.410278320312 C 774.5004272460938 1626.410278320312 778.0802001953125 1629.998901367188 778.0802001953125 1634.409912109375 C 778.0802001953125 1636.128540039062 777.525146484375 1637.804077148438 776.5089721679688 1639.1767578125 L 782.0061645507812 1644.725708007812 C 782.4326782226562 1645.155639648438 782.4320068359375 1645.853393554688 782.0044555664062 1646.280883789062 C 781.7960205078125 1646.489013671875 781.5206298828125 1646.603637695312 781.2288208007812 1646.603637695312 Z M 770.100341796875 1628.60009765625 C 766.9076538085938 1628.60009765625 764.3102416992188 1631.206420898438 764.3102416992188 1634.409912109375 C 764.3102416992188 1637.613525390625 766.9076538085938 1640.219848632812 770.100341796875 1640.219848632812 C 773.2930297851562 1640.219848632812 775.8904418945312 1637.613525390625 775.8904418945312 1634.409912109375 C 775.8904418945312 1631.206420898438 773.2930297851562 1628.60009765625 770.100341796875 1628.60009765625 Z" stroke="none"/>
        <path d="M 781.2288208007812 1646.103637695312 C 781.3871459960938 1646.103637695312 781.5370483398438 1646.041015625 781.6509399414062 1645.92724609375 C 781.88427734375 1645.693969726562 781.88427734375 1645.312866210938 781.6509399414062 1645.07763671875 L 775.8432006835938 1639.215087890625 C 776.9633178710938 1637.870971679688 777.5802001953125 1636.164428710938 777.5802001953125 1634.409912109375 C 777.5802001953125 1630.274536132812 774.2247314453125 1626.910278320312 770.100341796875 1626.910278320312 C 765.9758911132812 1626.910278320312 762.6204223632812 1630.274536132812 762.6204223632812 1634.409912109375 C 762.6204223632812 1638.545288085938 765.9758911132812 1641.90966796875 770.100341796875 1641.90966796875 C 771.9035034179688 1641.90966796875 773.6459350585938 1641.257080078125 775.0053100585938 1640.071899414062 L 780.8058471679688 1645.92724609375 C 780.9188232421875 1646.041015625 781.0690307617188 1646.103637695312 781.2288208007812 1646.103637695312 M 770.100341796875 1628.10009765625 C 773.5687255859375 1628.10009765625 776.3904418945312 1630.9306640625 776.3904418945312 1634.409912109375 C 776.3904418945312 1637.88916015625 773.5687255859375 1640.719848632812 770.100341796875 1640.719848632812 C 766.6319580078125 1640.719848632812 763.8102416992188 1637.88916015625 763.8102416992188 1634.409912109375 C 763.8102416992188 1630.9306640625 766.6319580078125 1628.10009765625 770.100341796875 1628.10009765625 M 781.2288208007812 1647.103637695312 C 780.8005981445312 1647.103637695312 780.3983764648438 1646.93603515625 780.0962524414062 1646.6318359375 L 774.918212890625 1641.404907226562 C 773.5089721679688 1642.380493164062 771.8296508789062 1642.90966796875 770.100341796875 1642.90966796875 C 765.4244995117188 1642.90966796875 761.6204223632812 1639.0966796875 761.6204223632812 1634.409912109375 C 761.6204223632812 1629.72314453125 765.4244995117188 1625.910278320312 770.100341796875 1625.910278320312 C 774.776123046875 1625.910278320312 778.5802001953125 1629.72314453125 778.5802001953125 1634.409912109375 C 778.5802001953125 1636.090942382812 778.0802001953125 1637.7333984375 777.158203125 1639.12158203125 L 782.3613891601562 1644.373901367188 C 782.9810180664062 1644.99853515625 782.979736328125 1646.012817382812 782.3579711914062 1646.634399414062 C 782.0549926757812 1646.937133789062 781.654052734375 1647.103637695312 781.2288208007812 1647.103637695312 Z M 770.100341796875 1629.10009765625 C 767.183349609375 1629.10009765625 764.8102416992188 1631.482055664062 764.8102416992188 1634.409912109375 C 764.8102416992188 1637.337768554688 767.183349609375 1639.719848632812 770.100341796875 1639.719848632812 C 773.017333984375 1639.719848632812 775.3904418945312 1637.337768554688 775.3904418945312 1634.409912109375 C 775.3904418945312 1631.482055664062 773.017333984375 1629.10009765625 770.100341796875 1629.10009765625 Z" stroke="none" fill="#d51d24"/>
      </g>
      <g id="Stroke_Effect" data-name="Stroke Effect" fill="none" stroke-linejoin="round">
        <path d="M780.806,1645.927l-5.8-5.855a7.5,7.5,0,1,1,.838-.857l5.808,5.863a.6.6,0,0,1-.422,1.026A.6.6,0,0,1,780.806,1645.927Z" stroke="none"/>
        <path d="M 781.2288208007812 1646.103637695312 C 781.3809204101562 1646.103637695312 781.533935546875 1646.044189453125 781.6509399414062 1645.92724609375 C 781.8849487304688 1645.693237304688 781.8849487304688 1645.3134765625 781.6509399414062 1645.07763671875 L 775.8432006835938 1639.215087890625 C 776.927734375 1637.913696289062 777.5802001953125 1636.23779296875 777.5802001953125 1634.409912109375 C 777.5802001953125 1630.268188476562 774.2313232421875 1626.910278320312 770.100341796875 1626.910278320312 C 765.9692993164062 1626.910278320312 762.6204223632812 1630.268188476562 762.6204223632812 1634.409912109375 C 762.6204223632812 1638.5517578125 765.9692993164062 1641.90966796875 770.100341796875 1641.90966796875 C 771.976806640625 1641.90966796875 773.6921997070312 1641.216674804688 775.0053100585938 1640.071899414062 L 780.8058471679688 1645.92724609375 C 780.9219360351562 1646.044189453125 781.0758056640625 1646.103637695312 781.2288208007812 1646.103637695312 M 781.2288208007812 1647.103637695312 C 780.8067016601562 1647.103637695312 780.3938598632812 1646.931640625 780.09619140625 1646.631713867188 L 774.918212890625 1641.404907226562 C 773.5088500976562 1642.380615234375 771.8296508789062 1642.90966796875 770.100341796875 1642.90966796875 C 765.4244995117188 1642.90966796875 761.6204223632812 1639.0966796875 761.6204223632812 1634.409912109375 C 761.6204223632812 1629.72314453125 765.4244995117188 1625.910278320312 770.100341796875 1625.910278320312 C 774.7761840820312 1625.910278320312 778.5802001953125 1629.72314453125 778.5802001953125 1634.409912109375 C 778.5802001953125 1636.090942382812 778.0802001953125 1637.7333984375 777.158203125 1639.12158203125 L 782.361328125 1644.373901367188 C 782.98095703125 1644.998291015625 782.979736328125 1646.0126953125 782.3580322265625 1646.634399414062 C 782.05517578125 1646.93701171875 781.6542358398438 1647.103637695312 781.2288208007812 1647.103637695312 Z" stroke="none" fill="#d51d24"/>
      </g>
    </g>
    <line id="Shape_61" data-name="Shape 61" x1="9.93" y2="9.93" transform="translate(764.28 1643.89)" fill="none" stroke="#d51d24" stroke-width="2.5"/>
  </g>
</svg>
