<svg xmlns="http://www.w3.org/2000/svg" width="32" height="23" viewBox="0 0 32 23">
  <g id="Vector_Smart_Object_copy_17" data-name="Vector Smart Object copy 17" transform="translate(-228.839 -341.235)">
    <g id="Isolation_Mode" data-name="Isolation Mode">
      <path id="Path_17" data-name="Path 17" d="M255.266,345.188v13.534H232.078V343.576h23.188v2.634h1.9v-3.089a1.9,1.9,0,0,0-1.911-1.886H232.212a1.9,1.9,0,0,0-1.915,1.886v15.755a1.9,1.9,0,0,0,1.915,1.885h23.041a1.9,1.9,0,0,0,1.911-1.885V345.188Zm-8.351-2.592h4.039a.226.226,0,1,1,0,.452h-4.039a.226.226,0,1,1,0-.452Zm13.924,20.2" fill="#002037"/>
      <rect id="Rectangle_14" data-name="Rectangle 14" width="23.188" height="15.146" transform="translate(232.078 343.576)" fill="#e6f6fe"/>
      <g id="Group_6" data-name="Group 6">
        <g id="Group_5" data-name="Group 5">
          <path id="Path_18" data-name="Path 18" d="M249.737,351.5a.292.292,0,0,0,.008-.046l0-.01a5.514,5.514,0,0,0-5.333-5.463v-.444a.223.223,0,0,0-.446,0v.444a5.515,5.515,0,0,0-5.334,5.463l0,.012a.238.238,0,0,0,.01.045.328.328,0,0,0,.011.037.162.162,0,0,0,.021.032.175.175,0,0,0,.03.036l.007.008a.285.285,0,0,0,.026.014.159.159,0,0,0,.041.021.123.123,0,0,0,.047.009c.009,0,.018.006.027.006l.009,0a.294.294,0,0,0,.049-.008.3.3,0,0,0,.036-.012.22.22,0,0,0,.036-.024.235.235,0,0,0,.033-.027l.008-.007a1.461,1.461,0,0,1,2.326,0,.05.05,0,0,0,.015.012c.005.006.007.013.015.017a.179.179,0,0,0,.027.016.251.251,0,0,0,.033.017.149.149,0,0,0,.055.012c.009,0,.016.006.025.006l.011,0,.033-.005a.193.193,0,0,0,.044-.013.1.1,0,0,0,.031-.018c.008-.005.015-.008.022-.013s.009-.011.013-.015.012-.008.017-.013a1.521,1.521,0,0,1,1.163-.577,1.5,1.5,0,0,1,1.111.522h.593a1.218,1.218,0,0,1,.964-.522,1.516,1.516,0,0,1,1.161.577.066.066,0,0,0,.016.012c.006.006.007.013.015.017s.019.01.027.016a.269.269,0,0,0,.035.017.131.131,0,0,0,.056.012.151.151,0,0,0,.023.006l.01,0,.033-.005a.278.278,0,0,0,.045-.013.124.124,0,0,0,.031-.018l.022-.013c.005,0,.007-.011.013-.015s.013-.007.016-.013a1.461,1.461,0,0,1,2.326,0l.007.007a.257.257,0,0,0,.054.04c.008,0,.013.01.019.013a.221.221,0,0,0,.09.019.237.237,0,0,0,.082-.016.192.192,0,0,0,.026-.014.174.174,0,0,0,.035-.02l.005-.008a.256.256,0,0,0,.031-.036.21.21,0,0,0,.021-.032.313.313,0,0,0,.013-.037Z" fill="#e71e2e"/>
          <path id="Path_19" data-name="Path 19" d="M247.769,350.11a1.618,1.618,0,0,0-1.088.547,2.328,2.328,0,0,0-1.362-.56,1.588,1.588,0,0,1-2.255,0,1.588,1.588,0,0,1-2.255,0,1.589,1.589,0,0,0-.918.3,4.147,4.147,0,0,1,4.3-3.621c2.231,0,4.439,1.467,4.665,3.605A3.331,3.331,0,0,0,247.769,350.11Z" fill="#e71e2e"/>
        </g>
      </g>
      <path id="Path_20" data-name="Path 20" d="M244.191,351.454v4.15a.957.957,0,0,1-.993.858.991.991,0,0,1-1.044-1.222" fill="none" stroke="#e71e2e" stroke-linecap="round" stroke-linejoin="round" stroke-width="0.849"/>
    </g>
    <g id="Layer_3" data-name="Layer 3">
      <path id="Path_21" data-name="Path 21" d="M258.5,362.151c0,1.152-.649,2.085-1.449,2.085H230.288c-.8,0-1.449-.933-1.449-2.085H258.5Z" fill="#002037"/>
    </g>
  </g>
</svg>
