<svg xmlns="http://www.w3.org/2000/svg" width="24.986" height="25.014" viewBox="0 0 24.986 25.014">
  <g id="Vector_Smart_Object" data-name="Vector Smart Object" transform="translate(-1334 -313.986)">
    <g id="Vector_Smart_Object-2" data-name="Vector Smart Object" transform="translate(1081.508 -121.505)">
      <path id="Path_249" data-name="Path 249" d="M261.287,442.26V438.1a1.9,1.9,0,0,1,1.929-1.863H274.8a1.9,1.9,0,0,1,1.93,1.863v15.207a1.9,1.9,0,0,1-1.93,1.864h-4.943" fill="none" stroke="#000" stroke-width="1.5"/>
      <g id="Group_92" data-name="Group 92">
        <path id="Path_250" data-name="Path 250" d="M260.963,452.494a4.385,4.385,0,1,0-4.549-4.387,4.471,4.471,0,0,0,4.549,4.387Zm0-7.619a3.233,3.233,0,1,1-3.35,3.231,3.3,3.3,0,0,1,3.35-3.231Zm0,0"/>
        <path id="Path_251" data-name="Path 251" d="M253.092,460.505h15.8a.586.586,0,0,0,.6-.579c0-3.029-2.554-6.663-5.709-6.663H258.2c-3.14,0-5.707,3.62-5.707,6.663a.586.586,0,0,0,.6.579Zm5.107-6.085h5.582c2.289,0,4.173,2.8,4.466,4.927H253.735c.293-2.115,2.177-4.927,4.464-4.927Zm0,0"/>
      </g>
      <line id="Line_81" data-name="Line 81" x2="8.671" transform="translate(264.862 441.31)" fill="none" stroke="#000" stroke-width="1.527"/>
      <line id="Line_82" data-name="Line 82" x2="5.393" transform="translate(268.14 445.709)" fill="none" stroke="#000" stroke-width="1.527"/>
      <line id="Line_83" data-name="Line 83" x2="4.357" transform="translate(269.176 449.94)" fill="none" stroke="#000" stroke-width="1.527"/>
    </g>
    <path id="Color_Overlay" data-name="Color Overlay" d="M1334.6,339a.586.586,0,0,1-.6-.58c0-3.043,2.567-6.663,5.707-6.663h5.582c3.154,0,5.709,3.633,5.709,6.663a.586.586,0,0,1-.6.58Zm.643-1.158h14.513c-.293-2.128-2.178-4.927-4.467-4.927h-5.582C1337.419,332.915,1335.535,335.727,1335.242,337.842Zm16.121-4.172-4.37-6.587a4.542,4.542,0,1,1-4.522-4.858,4.719,4.719,0,0,1,1.449.227l-1.125-1.7V316.6a1.9,1.9,0,0,1,1.929-1.864h11.582a1.9,1.9,0,0,1,1.931,1.864v15.206a1.9,1.9,0,0,1-1.931,1.864Zm-12.242-7.069a3.352,3.352,0,1,0,3.35-3.231A3.3,3.3,0,0,0,1339.121,326.6Z" fill="#fff"/>
  </g>
</svg>
