<svg xmlns="http://www.w3.org/2000/svg" width="20.966" height="23.108" viewBox="0 0 20.966 23.108">
  <g id="Vector_Smart_Object" data-name="Vector Smart Object" transform="translate(-822.017 -4478.909)">
    <g id="Vector_Smart_Object-2" data-name="Vector Smart Object" transform="translate(520.945 4070.447)">
      <g id="Layer_1" data-name="Layer 1">
        <path id="Path_177" data-name="Path 177" d="M307.535,412.96a5.344,5.344,0,0,0-1.259,3.454h10.612a5.336,5.336,0,0,0-1.29-3.475l2.751-2.768a.576.576,0,0,0,0-.807.558.558,0,0,0-.787,0l-2.785,2.8a5.266,5.266,0,0,0-6.421.022l-2.8-2.824a.572.572,0,0,0-.8,0,.586.586,0,0,0,0,.807Zm2.149.647" fill="none" stroke="#000" stroke-width="1.329"/>
        <path id="Path_178" data-name="Path 178" d="M306.573,427.061h.887v2.454a1.4,1.4,0,0,0,2.8,0v-2.454h2.435v2.454a1.407,1.407,0,0,0,2.811,0v-2.454h.952v-8.444h-9.882Zm0,0" fill="none" stroke="#000" stroke-width="1.432"/>
        <path id="Path_179" data-name="Path 179" d="M318.514,419.736V423.6a1.406,1.406,0,0,0,2.808,0v-3.866a1.406,1.406,0,0,0-2.808,0Zm0,0" fill="none" stroke="#000" stroke-width="1.432"/>
        <path id="Path_180" data-name="Path 180" d="M303.193,425.16a1.379,1.379,0,0,0,1.4-1.34v-3.866a1.406,1.406,0,0,0-2.809,0v3.866a1.379,1.379,0,0,0,1.405,1.34Zm0,0" fill="none" stroke="#000" stroke-width="1.432"/>
      </g>
      <g id="Layer_2" data-name="Layer 2">
        <ellipse id="Ellipse_1" data-name="Ellipse 1" cx="0.724" cy="0.691" rx="0.724" ry="0.691" transform="translate(309.082 413.287)"/>
        <path id="Path_181" data-name="Path 181" d="M314.023,413.978a.752.752,0,1,1-.75-.717A.732.732,0,0,1,314.023,413.978Z"/>
      </g>
    </g>
    <path id="Color_Overlay" data-name="Color Overlay" d="M833.637,4499.96v-2.453H831.2v2.453a1.4,1.4,0,0,1-2.8,0v-2.453h-.887v-8.444H837.4v8.444h-.951v2.453a1.407,1.407,0,0,1-2.812,0Zm-10.9-5.695V4490.4a1.407,1.407,0,0,1,2.81,0v3.866a1.406,1.406,0,0,1-2.81,0Zm16.725-.216v-3.867a1.406,1.406,0,0,1,2.808,0v3.867a1.406,1.406,0,0,1-2.808,0Zm-12.237-7.188a5.338,5.338,0,0,1,1.258-3.455l-2.776-2.789a.583.583,0,0,1,0-.807.572.572,0,0,1,.8,0l2.8,2.824a5.27,5.27,0,0,1,6.422-.022l2.785-2.8a.558.558,0,0,1,.787,0,.575.575,0,0,1,0,.807l-2.751,2.769a5.337,5.337,0,0,1,1.29,3.475Z" fill="#798791"/>
  </g>
</svg>
