<svg xmlns="http://www.w3.org/2000/svg" width="17.028" height="22.967" viewBox="0 0 17.028 22.967">
  <g id="Vector_Smart_Object" data-name="Vector Smart Object" transform="translate(-790.98 -4478.013)">
    <g id="Vector_Smart_Object-2" data-name="Vector Smart Object" transform="translate(507.174 4052.503)">
      <path id="Path_173" data-name="Path 173" d="M292.922,428.708a4.224,4.224,0,0,1,2.8-2.219c.154-.043.308-.054.486-.084,0,.139.011.254.011.369a4.444,4.444,0,0,1-2.541,4.029,2.69,2.69,0,0,1-1.152.225c-.075,0-.1-.02-.108-.1a3.9,3.9,0,0,1,.5-2.217Z" fill="none" stroke="#000" stroke-width="1.513"/>
      <path id="Path_174" data-name="Path 174" d="M299.752,442.884a12.416,12.416,0,0,1-2.05,3.627,4.507,4.507,0,0,1-.562.59,2.212,2.212,0,0,1-1.385.592,2.6,2.6,0,0,1-1.145-.226c-.268-.116-.532-.241-.8-.341a3.374,3.374,0,0,0-2.611.065c-.315.127-.619.273-.934.387a2.17,2.17,0,0,1-1.139.11,2.267,2.267,0,0,1-.9-.448,5.339,5.339,0,0,1-.9-.936,13.052,13.052,0,0,1-2.532-5.548,10.653,10.653,0,0,1-.212-2.695,6.682,6.682,0,0,1,.853-3.065,4.642,4.642,0,0,1,2.955-2.267,3.6,3.6,0,0,1,2.262.188c.39.158.778.314,1.168.466a1.443,1.443,0,0,0,1.076,0c.395-.163.8-.328,1.2-.479a4.9,4.9,0,0,1,1.26-.326,4.509,4.509,0,0,1,1.9.255,4.2,4.2,0,0,1,2.124,1.65l.039.065a4.477,4.477,0,0,0-2.01,4.09,4.327,4.327,0,0,0,2.512,3.773c-.05.15-.1.314-.16.472Z" fill="none" stroke="#000" stroke-width="1.513"/>
    </g>
    <path id="Color_Overlay" data-name="Color Overlay" d="M796.3,4500.189a2.252,2.252,0,0,1-.9-.447,5.373,5.373,0,0,1-.9-.935,13.039,13.039,0,0,1-2.533-5.549,10.728,10.728,0,0,1-.212-2.693,6.691,6.691,0,0,1,.854-3.065,4.641,4.641,0,0,1,2.955-2.266,3.588,3.588,0,0,1,2.263.188c.39.157.777.314,1.167.465a1.433,1.433,0,0,0,1.077,0c.394-.162.8-.329,1.2-.479a4.9,4.9,0,0,1,1.26-.325,4.491,4.491,0,0,1,1.9.254,4.193,4.193,0,0,1,2.124,1.65c.015.023.027.047.039.065a4.478,4.478,0,0,0-2.01,4.089,4.327,4.327,0,0,0,2.513,3.773c-.05.15-.1.314-.16.471a12.378,12.378,0,0,1-2.049,3.626,4.661,4.661,0,0,1-.562.592,2.215,2.215,0,0,1-1.385.591,2.606,2.606,0,0,1-1.145-.226c-.269-.116-.532-.242-.8-.341a3.371,3.371,0,0,0-2.611.065c-.315.127-.619.272-.934.386a2.314,2.314,0,0,1-.777.144A2,2,0,0,1,796.3,4500.189Zm3.4-16.658c-.076,0-.105-.02-.11-.1a3.9,3.9,0,0,1,.5-2.217,4.222,4.222,0,0,1,2.8-2.219,4.92,4.92,0,0,1,.487-.083c0,.139.01.254.01.369a4.446,4.446,0,0,1-2.54,4.03,2.73,2.73,0,0,1-1.071.226Z" fill="#798791"/>
  </g>
</svg>
