<svg xmlns="http://www.w3.org/2000/svg" width="7.001" height="15.001" viewBox="0 0 7.001 15.001">
  <g id="Vector_Smart_Object" data-name="Vector Smart Object" transform="translate(-925.999 -4463.999)">
    <g id="Vector_Smart_Object-2" data-name="Vector Smart Object" transform="translate(564.085 4237.125)">
      <path id="Path_187" data-name="Path 187" d="M368.641,234.381H366.53v7.494H363.4v-7.494h-1.488v-2.647H363.4v-1.714a2.926,2.926,0,0,1,3.156-3.144l2.317.009v2.571h-1.681a.635.635,0,0,0-.664.721v1.557h2.385Z" fill="#5a5b5e"/>
    </g>
    <path id="Color_Overlay" data-name="Color Overlay" d="M927.488,4479v-7.495H926v-2.648h1.489v-1.713a2.926,2.926,0,0,1,3.155-3.145l2.317.01v2.571h-1.682a.634.634,0,0,0-.663.72v1.557H933l-.274,2.648h-2.11V4479Z" fill="#fff"/>
  </g>
</svg>
