<svg xmlns="http://www.w3.org/2000/svg" width="15.001" height="15" viewBox="0 0 15.001 15">
  <g id="Vector_Smart_Object" data-name="Vector Smart Object" transform="translate(-977.999 -4513)">
    <g id="Vector_Smart_Object-2" data-name="Vector Smart Object" transform="translate(944.391 4462.26)">
      <g id="Group_71" data-name="Group 71">
        <path id="Path_199" data-name="Path 199" d="M42.24,60.291a4.679,4.679,0,0,0-.527-.595q-.289-.275-.577-.5t-.527-.433a2.108,2.108,0,0,1-.387-.432.825.825,0,0,1-.149-.46,1.013,1.013,0,0,1,.207-.609,3.592,3.592,0,0,1,.5-.55q.3-.266.6-.581a2.633,2.633,0,0,0,.5-.834,3.171,3.171,0,0,0,.207-1.185,3.47,3.47,0,0,0-.352-1.523,2.7,2.7,0,0,0-.992-1.136h1.217l1.217-.712H39.243a8.062,8.062,0,0,0-1.686.18A3.816,3.816,0,0,0,35.448,52.2a3.369,3.369,0,0,0-.856,2.258,2.886,2.886,0,0,0,.96,2.217,3.284,3.284,0,0,0,2.3.883,5.135,5.135,0,0,0,.631-.045c-.012.048-.033.113-.063.194s-.054.146-.072.194a.99.99,0,0,0-.045.175,1.249,1.249,0,0,0-.018.212,2.3,2.3,0,0,0,.577,1.343,10.68,10.68,0,0,0-1.352.122,10.286,10.286,0,0,0-1.4.325,4.345,4.345,0,0,0-1.307.64,2.905,2.905,0,0,0-1.2,2.213,2.23,2.23,0,0,0,.271,1.1,2.432,2.432,0,0,0,.694.8,4.151,4.151,0,0,0,.978.523,5.671,5.671,0,0,0,1.1.3,6.625,6.625,0,0,0,1.077.09,5.614,5.614,0,0,0,3.786-1.181,3.3,3.3,0,0,0,1.262-2.542,3.01,3.01,0,0,0-.149-.96,2.679,2.679,0,0,0-.387-.766Zm-3.475-3.277a1.752,1.752,0,0,1-.875-.234,2.322,2.322,0,0,1-.7-.609,4.356,4.356,0,0,1-.505-.843,4.6,4.6,0,0,1-.32-.937,4.131,4.131,0,0,1-.1-.892,2.434,2.434,0,0,1,.46-1.487,1.519,1.519,0,0,1,1.3-.622,1.728,1.728,0,0,1,1.077.37,2.572,2.572,0,0,1,.757.937,5.915,5.915,0,0,1,.424,1.176,4.862,4.862,0,0,1,.149,1.15,2.427,2.427,0,0,1-.392,1.447,1.453,1.453,0,0,1-1.266.546Zm2.492,6.769a1.774,1.774,0,0,1-.672.662,3.41,3.41,0,0,1-.906.352,4.421,4.421,0,0,1-1.014.113,4.947,4.947,0,0,1-1.145-.135,4.589,4.589,0,0,1-1.086-.41,2.266,2.266,0,0,1-.839-.757,1.935,1.935,0,0,1-.32-1.1,1.9,1.9,0,0,1,.243-.964,1.986,1.986,0,0,1,.622-.676,3.53,3.53,0,0,1,.884-.415A5.67,5.67,0,0,1,38,60.232a7.133,7.133,0,0,1,.955-.063,4.187,4.187,0,0,1,.451.018l.275.189.3.207q.077.054.279.207t.289.23q.086.077.248.23a1.7,1.7,0,0,1,.239.266l.19.274a1.143,1.143,0,0,1,.158.311c.03.1.058.207.085.325a1.624,1.624,0,0,1,.041.365,1.927,1.927,0,0,1-.248.991Zm0,0"/>
        <path id="Path_200" data-name="Path 200" d="M46.3,53.048V50.74H45.148v2.308H42.84V54.2h2.308V56.51H46.3V54.2h2.308V53.048Zm0,0"/>
      </g>
    </g>
    <path id="Color_Overlay" data-name="Color Overlay" d="M981.042,4527.91a5.558,5.558,0,0,1-1.1-.3,4.129,4.129,0,0,1-.978-.523,2.43,2.43,0,0,1-.693-.8,2.235,2.235,0,0,1-.272-1.1,2.913,2.913,0,0,1,1.2-2.213,4.335,4.335,0,0,1,1.308-.64,10.084,10.084,0,0,1,2.75-.446,2.3,2.3,0,0,1-.577-1.343,1.305,1.305,0,0,1,.018-.211,1.026,1.026,0,0,1,.044-.176l.073-.194a1.9,1.9,0,0,0,.063-.193,5.128,5.128,0,0,1-.631.045,3.28,3.28,0,0,1-2.3-.884,2.884,2.884,0,0,1-.96-2.217,3.367,3.367,0,0,1,.857-2.258,3.815,3.815,0,0,1,2.109-1.275,8.047,8.047,0,0,1,1.685-.181h3.94l-1.217.711h-1.217a2.7,2.7,0,0,1,.992,1.136,3.48,3.48,0,0,1,.352,1.524,3.159,3.159,0,0,1-.208,1.184,2.6,2.6,0,0,1-.506.834c-.2.211-.4.4-.594.582a3.679,3.679,0,0,0-.5.549,1.017,1.017,0,0,0-.208.61.831.831,0,0,0,.149.459,2.112,2.112,0,0,0,.388.432c.16.139.335.284.528.433s.384.317.576.5a4.705,4.705,0,0,1,.527.594,2.663,2.663,0,0,1,.388.766,3,3,0,0,1,.149.96,3.3,3.3,0,0,1-1.263,2.543A5.614,5.614,0,0,1,982.12,4528,6.6,6.6,0,0,1,981.042,4527.91Zm1.348-5.417a5.608,5.608,0,0,0-.973.225,3.548,3.548,0,0,0-.885.415,1.964,1.964,0,0,0-.62.676,1.894,1.894,0,0,0-.243.963,1.931,1.931,0,0,0,.319,1.1,2.266,2.266,0,0,0,.839.758,4.622,4.622,0,0,0,1.085.41,4.949,4.949,0,0,0,1.145.134,4.521,4.521,0,0,0,1.014-.111,3.455,3.455,0,0,0,.907-.353,1.779,1.779,0,0,0,.672-.662,1.946,1.946,0,0,0,.247-.992,1.653,1.653,0,0,0-.04-.364c-.027-.118-.056-.226-.086-.326a1.124,1.124,0,0,0-.157-.31l-.19-.275a1.726,1.726,0,0,0-.239-.266c-.108-.1-.191-.178-.248-.229s-.153-.128-.289-.229-.228-.172-.28-.208-.15-.106-.3-.208l-.274-.188a4.242,4.242,0,0,0-.451-.019A7.177,7.177,0,0,0,982.39,4522.493Zm-1.28-8.221a2.42,2.42,0,0,0-.46,1.486,4.121,4.121,0,0,0,.1.893,4.629,4.629,0,0,0,.319.937,4.417,4.417,0,0,0,.506.843,2.308,2.308,0,0,0,.7.609,1.753,1.753,0,0,0,.874.235,1.457,1.457,0,0,0,1.267-.546,2.437,2.437,0,0,0,.391-1.447,4.859,4.859,0,0,0-.148-1.15,5.934,5.934,0,0,0-.424-1.176,2.585,2.585,0,0,0-.757-.937,1.732,1.732,0,0,0-1.077-.368A1.518,1.518,0,0,0,981.111,4514.272Zm8.427,4.5v-2.307h-2.307v-1.155h2.307V4513h1.155v2.307H993v1.155h-2.307v2.307Z" fill="#fff"/>
  </g>
</svg>
