<svg xmlns="http://www.w3.org/2000/svg" width="15" height="15" viewBox="0 0 15 15">
  <g id="Vector_Smart_Object" data-name="Vector Smart Object" transform="translate(-922 -4512)">
    <g id="Vector_Smart_Object-2" data-name="Vector Smart Object" transform="translate(842.604 4396.015)">
      <g id="Group_73" data-name="Group 73">
        <path id="Path_203" data-name="Path 203" d="M92.989,115.985H80.8a1.408,1.408,0,0,0-1.407,1.407v12.187a1.407,1.407,0,0,0,1.407,1.407H92.989a1.408,1.408,0,0,0,1.407-1.407V117.392a1.408,1.408,0,0,0-1.407-1.407Zm-3.339,2.293a.941.941,0,0,1,.937-.937h1.172a.94.94,0,0,1,.937.937V119.7a.94.94,0,0,1-.937.938H90.587a.941.941,0,0,1-.937-.938Zm-2.753,1.9a3.307,3.307,0,1,1-3.308,3.308,3.31,3.31,0,0,1,3.308-3.308Zm6.093,9.87H80.8a.47.47,0,0,1-.469-.469v-7.233h2.481a4.244,4.244,0,1,0,8.163,0h2.481v7.233a.47.47,0,0,1-.469.469Zm0,0" fill="#1d1d1b"/>
      </g>
    </g>
    <path id="Color_Overlay" data-name="Color Overlay" d="M923.406,4527a1.406,1.406,0,0,1-1.405-1.406v-12.187a1.406,1.406,0,0,1,1.405-1.406h12.187a1.407,1.407,0,0,1,1.407,1.406v12.188a1.407,1.407,0,0,1-1.407,1.406Zm-.468-1.406a.47.47,0,0,0,.468.469h12.187a.47.47,0,0,0,.469-.469v-7.232h-2.48a4.242,4.242,0,1,1-8.327,1.139,4.157,4.157,0,0,1,.164-1.139h-2.481Zm3.255-6.093a3.307,3.307,0,1,0,3.308-3.308A3.311,3.311,0,0,0,926.193,4519.5Zm6.061-5.207v1.419a.942.942,0,0,0,.937.938h1.171a.941.941,0,0,0,.938-.938v-1.419a.94.94,0,0,0-.938-.937h-1.171A.94.94,0,0,0,932.254,4514.294Z" fill="#fff"/>
  </g>
</svg>
