<svg xmlns="http://www.w3.org/2000/svg" width="20" height="20" viewBox="0 0 20 20">
  <g id="Vector_Smart_Object" data-name="Vector Smart Object" transform="translate(-292.68 -470.529)">
    <path id="Path_221" data-name="Path 221" d="M312.68,480.53a10,10,0,1,1-10-10A10,10,0,0,1,312.68,480.53Z" fill="#a3b2bd"/>
    <path id="Path_222" data-name="Path 222" d="M305.966,474.274h-6.574a.288.288,0,0,0-.287.286V486.5a.287.287,0,0,0,.287.286h6.574a.288.288,0,0,0,.287-.286V474.559A.288.288,0,0,0,305.966,474.274Zm-3.288,11.861a.811.811,0,1,1,.811-.81A.811.811,0,0,1,302.679,486.135Zm2.369-2.381h-4.7v-7.989h4.7Z" fill="#fff"/>
  </g>
</svg>
