<svg xmlns="http://www.w3.org/2000/svg" width="20" height="20" viewBox="0 0 20 20">
  <g id="Vector_Smart_Object" data-name="Vector Smart Object" transform="translate(-292.68 -444.258)">
    <path id="Path_223" data-name="Path 223" d="M312.68,454.258a10,10,0,1,1-10-10A10,10,0,0,1,312.68,454.258Z" fill="#91a3b0"/>
    <g id="Group_78" data-name="Group 78">
      <path id="Path_224" data-name="Path 224" d="M305.488,459.29a4.9,4.9,0,0,1-.65-.069,4.786,4.786,0,0,1-1.1-.344,9.37,9.37,0,0,1-1.517-.83,11.435,11.435,0,0,1-1.808-1.525,11.923,11.923,0,0,1-1.267-1.442,10,10,0,0,1-.8-1.264,6.885,6.885,0,0,1-.453-1.045,5.594,5.594,0,0,1-.2-.8,2.47,2.47,0,0,1-.042-.5c.008-.139.01-.219.01-.233a1.061,1.061,0,0,1,.079-.229.65.65,0,0,1,.144-.2l1.481-1.48a.284.284,0,0,1,.212-.095.215.215,0,0,1,.133.042.552.552,0,0,1,.139.151l1.178,2.238a.332.332,0,0,1,.037.25.485.485,0,0,1-.131.253l-.58.579-.053.116a.431.431,0,0,0-.027.149,2.087,2.087,0,0,0,.222.627,5.4,5.4,0,0,0,.425.673,10.706,10.706,0,0,0,1.722,1.721,5.353,5.353,0,0,0,.675.432,2.024,2.024,0,0,0,.448.178l.2.041.126-.037a.355.355,0,0,0,.151-.092l.626-.638a.48.48,0,0,1,.322-.118.37.37,0,0,1,.191.037l.05.032h.059l2.049,1.233a.354.354,0,0,1,.18.234.3.3,0,0,1-.1.262l-1.474,1.46a.629.629,0,0,1-.2.148.837.837,0,0,1-.253.082A1.7,1.7,0,0,1,305.488,459.29Z" fill="#fff"/>
    </g>
  </g>
</svg>
