<svg xmlns="http://www.w3.org/2000/svg" width="42.296" height="41.998" viewBox="0 0 42.296 41.998">
  <g id="Vector_Smart_Object" data-name="Vector Smart Object" transform="translate(-152.203 -243.403)">
    <g id="Layer_1" data-name="Layer 1">
      <path id="Rectangle_31" data-name="Rectangle 31" d="M1.184,0h8.3A1.184,1.184,0,0,1,10.67,1.184v9.628A1.185,1.185,0,0,1,9.485,12h-8.3A1.184,1.184,0,0,1,0,10.813V1.184A1.184,1.184,0,0,1,1.184,0Z" transform="translate(154.113 272.648)" fill="none" stroke="#798691" stroke-width="1.51"/>
      <path id="Rectangle_32" data-name="Rectangle 32" d="M1.184,0h8.3a1.184,1.184,0,0,1,1.184,1.184V16.638a1.185,1.185,0,0,1-1.185,1.185h-8.3A1.184,1.184,0,0,1,0,16.639V1.184A1.184,1.184,0,0,1,1.184,0Z" transform="translate(168.284 266.823)" fill="none" stroke="#798691" stroke-width="1.51"/>
      <path id="Rectangle_33" data-name="Rectangle 33" d="M1.184,0h8.3A1.184,1.184,0,0,1,10.67,1.184V25.531a1.185,1.185,0,0,1-1.185,1.185h-8.3A1.185,1.185,0,0,1,0,25.531V1.184A1.184,1.184,0,0,1,1.184,0Z" transform="translate(183.074 257.93)" fill="none" stroke="#798691" stroke-width="1.51"/>
    </g>
    <g id="Layer_2" data-name="Layer 2">
      <path id="Path_149" data-name="Path 149" d="M153.249,266.1l16.638-11.031,2.345,2.822,14.979-9.632" fill="none" stroke="#798691" stroke-linecap="round" stroke-linejoin="round" stroke-width="1.51"/>
    </g>
    <g id="Layer_3" data-name="Layer 3">
      <path id="Path_150" data-name="Path 150" d="M189.628,252.234a.48.48,0,0,1-.577.361l-5.118-8.314a.478.478,0,0,1,.577-.359l6.225,1.471a.483.483,0,0,1,.356.581Z" fill="#798691" stroke="#798691" stroke-width="1.007"/>
    </g>
  </g>
</svg>
