<svg xmlns="http://www.w3.org/2000/svg" width="39.742" height="48" viewBox="0 0 39.742 48">
  <g id="Vector_Smart_Object" data-name="Vector Smart Object" transform="translate(-57.837 -128.297)">
    <path id="Path_153" data-name="Path 153" d="M60.955,152.986a14.127,14.127,0,0,0,22.208-7.673,4.675,4.675,0,0,1,1.95-2.784,8.609,8.609,0,0,1,3.734-1.415,1.148,1.148,0,0,1,1.214,1.82,5.174,5.174,0,0,0-.711,4.312.921.921,0,0,0,.27.417,15.238,15.238,0,0,1,4.661,6.55c.072.2.186.246.385.248a8.973,8.973,0,0,1,1.449.062,1.743,1.743,0,0,1,1.459,1.757q.008,2.277,0,4.552a1.773,1.773,0,0,1-1.6,1.766,8.853,8.853,0,0,1-1.172.032.374.374,0,0,0-.433.3,14.935,14.935,0,0,1-4.1,6.219,13.165,13.165,0,0,0-1.481,1.576,5.19,5.19,0,0,0-1.1,3.387q.018.558,0,1.117a1.009,1.009,0,0,1-1.035,1.057q-3.056.031-6.11,0a.979.979,0,0,1-1.027-1.048c-.01-.45,0-.9,0-1.383H74.662c0,.369,0,.8,0,1.24a1.054,1.054,0,0,1-1.183,1.151q-2.915,0-5.826,0c-.783,0-1.139-.379-1.164-1.156a8.314,8.314,0,0,0-2.216-5.589,17.537,17.537,0,0,1-4.106-7.282,13.109,13.109,0,0,1,.662-8.968C60.859,153.177,60.9,153.105,60.955,152.986Z" fill="#69d3ff" fill-rule="evenodd"/>
    <path id="Path_154" data-name="Path 154" d="M69.543,128.3a11.562,11.562,0,1,1-11.706,11.549A11.638,11.638,0,0,1,69.543,128.3Z" fill="#ee383e" fill-rule="evenodd"/>
    <path id="Path_155" data-name="Path 155" d="M61.847,131.16,77.227,148.6a11.821,11.821,0,0,1-16.511-1.148A11.453,11.453,0,0,1,61.847,131.16Z" fill="#d62f3b" fill-rule="evenodd"/>
    <text id="_" data-name="`" transform="translate(65.827 146.529)" fill="#fff" font-size="16" font-family="IndianRupee-Regular, Indian Rupee"><tspan x="0" y="0">`</tspan></text>
    <path id="Path_156" data-name="Path 156" d="M86.563,152.9a1.51,1.51,0,0,0,1.486,1.486,1.537,1.537,0,0,0,1.514-1.47,1.505,1.505,0,0,0-1.519-1.492A1.48,1.48,0,0,0,86.563,152.9Z" fill="#fff" fill-rule="evenodd"/>
    <path id="Path_157" data-name="Path 157" d="M66.506,175.088c.025.777.382,1.155,1.164,1.156q2.913,0,5.827,0a1.055,1.055,0,0,0,1.184-1.151c0-.435,0-.871,0-1.24h4.849c0,.485-.009.934,0,1.383a.979.979,0,0,0,1.027,1.048q3.055.027,6.11,0a1.008,1.008,0,0,0,1.035-1.057q.018-.559,0-1.117a5.194,5.194,0,0,1,1.1-3.387,13.172,13.172,0,0,1,1.482-1.576,15.738,15.738,0,0,0,3.43-4.566H61.035a17.929,17.929,0,0,0,3.256,4.92A8.321,8.321,0,0,1,66.506,175.088Z" fill="#005e9e" fill-rule="evenodd"/>
  </g>
</svg>
