<svg xmlns="http://www.w3.org/2000/svg" width="16.95" height="18.929" viewBox="0 0 16.95 18.929">
  <path id="Color_Overlay" data-name="Color Overlay" d="M1188.42,29.055a3,3,0,0,1-.792-1.542h-5.095a.535.535,0,0,1-.522-.424.55.55,0,0,1-.011-.076v-.071a.532.532,0,0,1,.312-.449c2.01-.908,2.087-4.809,2.089-4.906V18.969a6.089,6.089,0,0,1,3.721-5.6,2.353,2.353,0,0,1,4.705,0,6.085,6.085,0,0,1,3.72,5.6v2.617c0,.1.079,4,2.089,4.906a.534.534,0,0,1-.22,1.021h-5.095a3,3,0,0,1-.794,1.542,2.808,2.808,0,0,1-4.109,0Zm2.056-.175a1.87,1.87,0,0,0,1.751-1.367h-3.5A1.869,1.869,0,0,0,1190.476,28.88Zm-6.448-2.435h12.9a5.913,5.913,0,0,1-.933-1.822h-11.029A5.939,5.939,0,0,1,1184.027,26.445Zm1.441-7.475v2.62a11.248,11.248,0,0,1-.226,1.968h10.467a11,11,0,0,1-.226-1.965V18.969a5.008,5.008,0,1,0-10.015,0Zm6.242-5.952a1.285,1.285,0,0,0-2.47,0,6.118,6.118,0,0,1,2.47,0Zm-5.4,5.855a4.168,4.168,0,0,1,4.162-4.164.534.534,0,0,1,0,1.067,3.1,3.1,0,0,0-3.094,3.1.534.534,0,1,1-1.067,0Z" transform="translate(-1182.001 -11.02)" fill="#fff"/>
</svg>
