<svg xmlns="http://www.w3.org/2000/svg" width="21.102" height="18.645" viewBox="0 0 21.102 18.645">
  <g id="heart" transform="translate(-1337.193 -236.415)" fill="none">
    <path d="M1339.039,238.338c3.125-3.266,6.223-1.838,8.7.491,2.481-2.329,5.554-3.783,8.7-.491a6.7,6.7,0,0,1,0,9.238c-4.141,3.892-6.306,5.924-7.437,6.984a1.81,1.81,0,0,1-2.49.006c-1.14-1.059-3.319-3.09-7.482-6.99A6.7,6.7,0,0,1,1339.039,238.338Z" stroke="none"/>
    <path d="M 1352.574829101562 237.9147644042969 C 1351.469482421875 237.9148406982422 1350.189575195312 238.5904235839844 1348.770629882812 239.9227142333984 L 1347.744018554688 240.8866424560547 L 1346.71728515625 239.9228820800781 C 1345.305541992188 238.5976715087891 1344.023681640625 237.9257507324219 1342.907592773438 237.9257507324219 C 1341.967041015625 237.9257507324219 1341.05615234375 238.3998413085938 1340.122680664062 239.3753814697266 C 1338.22998046875 241.3525695800781 1338.219482421875 244.5448608398438 1340.09326171875 246.5082397460938 C 1344.356323242188 250.5019378662109 1346.49658203125 252.4967041015625 1347.541381835938 253.4668579101562 C 1347.623901367188 253.5435333251953 1347.707397460938 253.5596160888672 1347.762939453125 253.5596160888672 C 1347.81884765625 253.5596160888672 1347.902954101562 253.5433044433594 1347.985473632812 253.4660949707031 C 1349.424560546875 252.1171875 1351.916625976562 249.7767028808594 1355.39306640625 246.5090942382812 C 1357.267700195312 244.5459594726562 1357.257446289062 241.3530426025391 1355.3642578125 239.3751068115234 C 1354.423950195312 238.3923645019531 1353.511474609375 237.9146881103516 1352.574829101562 237.9147644042969 M 1352.57470703125 236.4147644042969 C 1353.827270507812 236.4146575927734 1355.130737304688 236.96142578125 1356.447998046875 238.3381042480469 C 1358.9033203125 240.9033050537109 1358.916625976562 245.02490234375 1356.447998046875 247.5760955810547 C 1352.307006835938 251.4683990478516 1350.142456054688 253.5001983642578 1349.01123046875 254.5605010986328 C 1348.302856445312 255.2238006591797 1347.231811523438 255.2262573242188 1346.520751953125 254.5661010742188 C 1345.380737304688 253.5075073242188 1343.2021484375 251.4761047363281 1339.039184570312 247.5760955810547 C 1336.570556640625 245.02490234375 1336.58349609375 240.9033050537109 1339.039184570312 238.3381042480469 C 1342.164428710938 235.0718078613281 1345.262329101562 236.4998321533203 1347.743896484375 238.8291931152344 C 1349.187255859375 237.4738922119141 1350.831665039062 236.4149017333984 1352.57470703125 236.4147644042969 Z" stroke="none" fill="#fff"/>
  </g>
</svg>
