<svg xmlns="http://www.w3.org/2000/svg" width="22.56" height="19.741" viewBox="0 0 22.56 19.741">
  <path id="Bubble" d="M1348,155.038c5.442,0,9.87,3.163,9.87,7.05s-4.428,7.05-9.87,7.05h-.584a6.141,6.141,0,0,1-1.037-.07l-.79-.113-.507.614a10.634,10.634,0,0,1-2.734,1.887,6.883,6.883,0,0,0,.481-2.238l.007-.042V168.2l-.768-.393c-2.5-1.28-3.937-3.363-3.937-5.715,0-3.887,4.427-7.05,9.87-7.05m0-1.41c-6.23,0-11.28,3.788-11.28,8.46,0,2.91,1.724,5.445,4.705,6.97,0,.018-.005.031-.005.051a7.469,7.469,0,0,1-1.124,3.369h0a.639.639,0,0,0,.587.892c.053,0,.138-.012.169-.012.007,0,.012,0,.011,0a10.85,10.85,0,0,0,5.108-2.894,7.563,7.563,0,0,0,1.245.085l.584,0c6.229,0,11.28-3.788,11.28-8.461s-5.051-8.46-11.28-8.46Z" transform="translate(-1336.72 -153.628)" fill="#fff"/>
</svg>
