<svg xmlns="http://www.w3.org/2000/svg" width="19.722" height="19.655" viewBox="0 0 19.722 19.655">
  <path id="Subtraction_1" data-name="Subtraction 1" d="M-10935.862-1194.346a.579.579,0,0,1-.412-.173l-5.655-5.688a7.274,7.274,0,0,1-4.78,1.787,7.3,7.3,0,0,1-7.291-7.291,7.3,7.3,0,0,1,7.291-7.291,7.3,7.3,0,0,1,7.29,7.291,7.289,7.289,0,0,1-1.693,4.671l5.663,5.7a.573.573,0,0,1,.171.411.572.572,0,0,1-.171.411A.569.569,0,0,1-10935.862-1194.346Zm-10.848-17.5a6.137,6.137,0,0,0-6.131,6.13,6.137,6.137,0,0,0,6.131,6.13,6.137,6.137,0,0,0,6.13-6.13A6.137,6.137,0,0,0-10946.71-1211.841Z" transform="translate(10954.501 1213.501)" fill="#fff" stroke="rgba(0,0,0,0)" stroke-width="1"/>
</svg>
