<svg xmlns="http://www.w3.org/2000/svg" width="15.845" height="18.906" viewBox="0 0 15.845 18.906">
  <path id="Color_Overlay" data-name="Color Overlay" d="M1236.865,29.963a14.129,14.129,0,0,1-6.431-1.842.578.578,0,0,1-.231-.284,2.428,2.428,0,0,1-.121-.476V24.972a2.655,2.655,0,0,1,1.724-2.276,10.937,10.937,0,0,0,3.217-1.473.593.593,0,0,1,.347-.112.605.605,0,0,1,.5.259.617.617,0,0,1-.148.85,12.108,12.108,0,0,1-3.547,1.639c-.839.3-.936,1.206-.963,2.106l-.086.094.082,0a6.624,6.624,0,0,0,.08,1.187A14.516,14.516,0,0,0,1238,28.784a13.884,13.884,0,0,0,6.756-1.588c.018-.237.045-.763.04-1.131a.787.787,0,0,1,0-.1c-.028-.9-.125-1.8-.97-2.106a12.087,12.087,0,0,1-3.539-1.634.617.617,0,0,1-.149-.851.608.608,0,0,1,.5-.259.589.589,0,0,1,.345.111,11.136,11.136,0,0,0,3.173,1.462,2.7,2.7,0,0,1,1.778,2.354v2.292a2.533,2.533,0,0,1-.119.5.614.614,0,0,1-.231.285,14.025,14.025,0,0,1-6.419,1.841Zm1.192-8.648h-.123a3.6,3.6,0,0,1-2.776-1.218c-1.494-1.7-1.263-4.609-1.232-4.935a4.064,4.064,0,0,1,1.935-3.617,4.123,4.123,0,0,1,1.415-.489h1.4a3.889,3.889,0,0,1,3.391,4.11c.031.323.255,3.236-1.23,4.93a3.621,3.621,0,0,1-2.779,1.218Zm-.086-9.091c-.814,0-2.723.294-2.847,3.017-.008.066-.257,2.7.932,4.048a2.421,2.421,0,0,0,1.921.806,2.463,2.463,0,0,0,1.961-.806c1.193-1.361.935-3.983.932-4.01-.121-2.611-1.84-3.032-2.854-3.056l-.045-.083Z" transform="translate(-1230.082 -11.056)" fill="#fff"/>
</svg>
